<svg xmlns="http://www.w3.org/2000/svg" xmlns:xlink="http://www.w3.org/1999/xlink" width="722" height="878" viewBox="0 0 722 878"><defs><filter id="a" x="193" y="450" width="32" height="428" filterUnits="userSpaceOnUse"><feOffset dy="3" input="SourceAlpha"/><feGaussianBlur stdDeviation="3" result="b"/><feFlood flood-opacity="0.161"/><feComposite operator="in" in2="b"/><feComposite in="SourceGraphic"/></filter><filter id="c" x="225" y="450" width="32" height="428" filterUnits="userSpaceOnUse"><feOffset dy="3" input="SourceAlpha"/><feGaussianBlur stdDeviation="3" result="d"/><feFlood flood-opacity="0.161"/><feComposite operator="in" in2="d"/><feComposite in="SourceGraphic"/></filter><filter id="e" x="658" y="450" width="32" height="428" filterUnits="userSpaceOnUse"><feOffset dy="3" input="SourceAlpha"/><feGaussianBlur stdDeviation="3" result="f"/><feFlood flood-opacity="0.161"/><feComposite operator="in" in2="f"/><feComposite in="SourceGraphic"/></filter><filter id="g" x="690" y="450" width="32" height="428" filterUnits="userSpaceOnUse"><feOffset dy="3" input="SourceAlpha"/><feGaussianBlur stdDeviation="3" result="h"/><feFlood flood-opacity="0.161"/><feComposite operator="in" in2="h"/><feComposite in="SourceGraphic"/></filter><filter id="i" x="193" y="0" width="32" height="428" filterUnits="userSpaceOnUse"><feOffset dy="3" input="SourceAlpha"/><feGaussianBlur stdDeviation="3" result="j"/><feFlood flood-opacity="0.161"/><feComposite operator="in" in2="j"/><feComposite in="SourceGraphic"/></filter><filter id="k" x="225" y="0" width="32" height="428" filterUnits="userSpaceOnUse"><feOffset dy="3" input="SourceAlpha"/><feGaussianBlur stdDeviation="3" result="l"/><feFlood flood-opacity="0.161"/><feComposite operator="in" in2="l"/><feComposite in="SourceGraphic"/></filter><filter id="m" x="658" y="0" width="32" height="428" filterUnits="userSpaceOnUse"><feOffset dy="3" input="SourceAlpha"/><feGaussianBlur stdDeviation="3" result="n"/><feFlood flood-opacity="0.161"/><feComposite operator="in" in2="n"/><feComposite in="SourceGraphic"/></filter><filter id="o" x="690" y="0" width="32" height="428" filterUnits="userSpaceOnUse"><feOffset dy="3" input="SourceAlpha"/><feGaussianBlur stdDeviation="3" result="p"/><feFlood flood-opacity="0.161"/><feComposite operator="in" in2="p"/><feComposite in="SourceGraphic"/></filter><filter id="q" x="0.295" y="404" width="721.705" height="32" filterUnits="userSpaceOnUse"><feOffset dy="3" input="SourceAlpha"/><feGaussianBlur stdDeviation="3" result="r"/><feFlood flood-opacity="0.161"/><feComposite operator="in" in2="r"/><feComposite in="SourceGraphic"/></filter><filter id="s" x="0.295" y="436" width="721.705" height="32" filterUnits="userSpaceOnUse"><feOffset dy="3" input="SourceAlpha"/><feGaussianBlur stdDeviation="3" result="t"/><feFlood flood-opacity="0.161"/><feComposite operator="in" in2="t"/><feComposite in="SourceGraphic"/></filter><filter id="u" x="193" y="0" width="529" height="32" filterUnits="userSpaceOnUse"><feOffset dy="3" input="SourceAlpha"/><feGaussianBlur stdDeviation="3" result="v"/><feFlood flood-opacity="0.161"/><feComposite operator="in" in2="v"/><feComposite in="SourceGraphic"/></filter><filter id="w" x="193" y="32" width="529" height="32" filterUnits="userSpaceOnUse"><feOffset dy="3" input="SourceAlpha"/><feGaussianBlur stdDeviation="3" result="x"/><feFlood flood-opacity="0.161"/><feComposite operator="in" in2="x"/><feComposite in="SourceGraphic"/></filter><filter id="y" x="0" y="450" width="32" height="428" filterUnits="userSpaceOnUse"><feOffset dy="3" input="SourceAlpha"/><feGaussianBlur stdDeviation="3" result="z"/><feFlood flood-opacity="0.161"/><feComposite operator="in" in2="z"/><feComposite in="SourceGraphic"/></filter><filter id="aa" x="32" y="450" width="32" height="428" filterUnits="userSpaceOnUse"><feOffset dy="3" input="SourceAlpha"/><feGaussianBlur stdDeviation="3" result="ab"/><feFlood flood-opacity="0.161"/><feComposite operator="in" in2="ab"/><feComposite in="SourceGraphic"/></filter></defs><g transform="translate(-338 -40)"><rect width="32" height="410" transform="translate(547 496)" fill="#898989"/><g transform="matrix(1, 0, 0, 1, 338, 40)" filter="url(#a)"><rect width="14" height="410" transform="translate(202 456)" fill="#aaa"/></g><g transform="matrix(1, 0, 0, 1, 338, 40)" filter="url(#c)"><rect width="14" height="410" transform="translate(234 456)" fill="#aaa"/></g><g transform="translate(465)"><rect width="32" height="410" transform="translate(547 496)" fill="#898989"/><g transform="matrix(1, 0, 0, 1, -127, 40)" filter="url(#e)"><rect width="14" height="410" transform="translate(667 456)" fill="#aaa"/></g><g transform="matrix(1, 0, 0, 1, -127, 40)" filter="url(#g)"><rect width="14" height="410" transform="translate(699 456)" fill="#aaa"/></g></g><g transform="translate(0 -450)"><rect width="32" height="410" transform="translate(547 496)" fill="#898989"/><g transform="matrix(1, 0, 0, 1, 338, 490)" filter="url(#i)"><rect width="14" height="410" transform="translate(202 6)" fill="#aaa"/></g><g transform="matrix(1, 0, 0, 1, 338, 490)" filter="url(#k)"><rect width="14" height="410" transform="translate(234 6)" fill="#aaa"/></g></g><g transform="translate(465 -450)"><rect width="32" height="410" transform="translate(547 496)" fill="#898989"/><g transform="matrix(1, 0, 0, 1, -127, 490)" filter="url(#m)"><rect width="14" height="410" transform="translate(667 6)" fill="#aaa"/></g><g transform="matrix(1, 0, 0, 1, -127, 490)" filter="url(#o)"><rect width="14" height="410" transform="translate(699 6)" fill="#aaa"/></g></g><g transform="translate(1547 -90) rotate(90)"><rect width="32" height="703.705" transform="translate(547 496)" fill="#898989"/><g transform="matrix(0, -1, 1, 0, 130, 1209)" filter="url(#q)"><rect width="14" height="703.705" transform="translate(713 410) rotate(90)" fill="#aaa"/></g><g transform="matrix(0, -1, 1, 0, 130, 1209)" filter="url(#s)"><rect width="14" height="703.705" transform="translate(713 442) rotate(90)" fill="#aaa"/></g></g><g transform="translate(1547 -494) rotate(90)"><rect width="32" height="511" transform="translate(547 496)" fill="#898989"/><g transform="matrix(0, -1, 1, 0, 534, 1209)" filter="url(#u)"><rect width="14" height="511" transform="translate(713 6) rotate(90)" fill="#aaa"/></g><g transform="matrix(0, -1, 1, 0, 534, 1209)" filter="url(#w)"><rect width="14" height="511" transform="translate(713 38) rotate(90)" fill="#aaa"/></g></g><g transform="translate(-193)"><rect width="32" height="410" transform="translate(547 496)" fill="#898989"/><g transform="matrix(1, 0, 0, 1, 531, 40)" filter="url(#y)"><rect width="14" height="410" transform="translate(9 456)" fill="#aaa"/></g><g transform="matrix(1, 0, 0, 1, 531, 40)" filter="url(#aa)"><rect width="14" height="410" transform="translate(41 456)" fill="#aaa"/></g></g></g></svg>