<svg xmlns="http://www.w3.org/2000/svg" xmlns:xlink="http://www.w3.org/1999/xlink" width="598" height="634" viewBox="0 0 598 634"><defs><filter id="a" x="481" y="211" width="117" height="336" filterUnits="userSpaceOnUse"><feOffset dy="3" input="SourceAlpha"/><feGaussianBlur stdDeviation="3" result="b"/><feFlood flood-opacity="0.161"/><feComposite operator="in" in2="b"/><feComposite in="SourceGraphic"/></filter><clipPath id="c"><rect width="183" height="311" fill="none"/></clipPath><filter id="d" x="0" y="71" width="215" height="563" filterUnits="userSpaceOnUse"><feOffset dy="3" input="SourceAlpha"/><feGaussianBlur stdDeviation="3" result="e"/><feFlood flood-opacity="0.161"/><feComposite operator="in" in2="e"/><feComposite in="SourceGraphic"/></filter><clipPath id="f"><rect width="171" height="440" fill="none"/></clipPath><filter id="g" x="284" y="0" width="215" height="563" filterUnits="userSpaceOnUse"><feOffset dy="3" input="SourceAlpha"/><feGaussianBlur stdDeviation="3" result="h"/><feFlood flood-opacity="0.161"/><feComposite operator="in" in2="h"/><feComposite in="SourceGraphic"/></filter><clipPath id="i"><rect width="171" height="521" fill="none"/></clipPath><filter id="j" x="135" y="222" width="223" height="369" filterUnits="userSpaceOnUse"><feOffset dy="3" input="SourceAlpha"/><feGaussianBlur stdDeviation="3" result="k"/><feFlood flood-opacity="0.161"/><feComposite operator="in" in2="k"/><feComposite in="SourceGraphic"/></filter></defs><g transform="translate(-1333 -208)"><g transform="matrix(1, 0, 0, 1, 1333, 208)" filter="url(#a)"><g transform="translate(490 217)" fill="#46555c" stroke="#707070" stroke-width="1"><rect width="99" height="318" stroke="none"/><rect x="0.5" y="0.5" width="98" height="317" fill="none"/></g></g><g transform="translate(1732 436)" clip-path="url(#c)"><g transform="translate(-1356 -319)"><rect width="20" height="22" transform="translate(1356 319)" fill="#404f57"/></g><g transform="translate(-1316 -319)"><rect width="20" height="22" transform="translate(1356 319)" fill="#404f57"/></g><g transform="translate(-1276 -319)"><rect width="20" height="22" transform="translate(1356 319)" fill="#404f57"/></g><g transform="translate(-1236 -319)"><rect width="20" height="22" transform="translate(1356 319)" fill="#404f57"/></g><g transform="translate(-1196 -319)"><rect width="20" height="22" transform="translate(1356 319)" fill="#404f57"/></g><g transform="translate(-1356 -277)"><rect width="20" height="22" transform="translate(1356 319)" fill="#404f57"/></g><g transform="translate(-1316 -277)"><rect width="20" height="22" transform="translate(1356 319)" fill="#404f57"/></g><g transform="translate(-1276 -277)"><rect width="20" height="22" transform="translate(1356 319)" fill="#404f57"/></g><g transform="translate(-1236 -277)"><rect width="20" height="22" transform="translate(1356 319)" fill="#404f57"/></g><g transform="translate(-1196 -277)"><rect width="20" height="22" transform="translate(1356 319)" fill="#404f57"/></g><g transform="translate(-1356 -235)"><rect width="20" height="22" transform="translate(1356 319)" fill="#404f57"/></g><g transform="translate(-1316 -235)"><rect width="20" height="22" transform="translate(1356 319)" fill="#404f57"/></g><g transform="translate(-1276 -235)"><rect width="20" height="22" transform="translate(1356 319)" fill="#404f57"/></g><g transform="translate(-1236 -235)"><rect width="20" height="22" transform="translate(1356 319)" fill="#404f57"/></g><g transform="translate(-1196 -235)"><rect width="20" height="22" transform="translate(1356 319)" fill="#404f57"/></g><g transform="translate(-1356 -193)"><rect width="20" height="22" transform="translate(1356 319)" fill="#404f57"/></g><g transform="translate(-1316 -193)"><rect width="20" height="22" transform="translate(1356 319)" fill="#404f57"/></g><g transform="translate(-1276 -193)"><rect width="20" height="22" transform="translate(1356 319)" fill="#404f57"/></g><g transform="translate(-1236 -193)"><rect width="20" height="22" transform="translate(1356 319)" fill="#404f57"/></g><g transform="translate(-1196 -193)"><rect width="20" height="22" transform="translate(1356 319)" fill="#404f57"/></g><g transform="translate(-1356 -151)"><rect width="20" height="22" transform="translate(1356 319)" fill="#404f57"/></g><g transform="translate(-1316 -151)"><rect width="20" height="22" transform="translate(1356 319)" fill="#404f57"/></g><g transform="translate(-1276 -151)"><rect width="20" height="22" transform="translate(1356 319)" fill="#404f57"/></g><g transform="translate(-1236 -151)"><rect width="20" height="22" transform="translate(1356 319)" fill="#404f57"/></g><g transform="translate(-1196 -151)"><rect width="20" height="22" transform="translate(1356 319)" fill="#404f57"/></g><g transform="translate(-1356 -109)"><rect width="20" height="22" transform="translate(1356 319)" fill="#404f57"/></g><g transform="translate(-1316 -109)"><rect width="20" height="22" transform="translate(1356 319)" fill="#404f57"/></g><g transform="translate(-1276 -109)"><rect width="20" height="22" transform="translate(1356 319)" fill="#404f57"/></g><g transform="translate(-1236 -109)"><rect width="20" height="22" transform="translate(1356 319)" fill="#404f57"/></g><g transform="translate(-1196 -109)"><rect width="20" height="22" transform="translate(1356 319)" fill="#404f57"/></g><g transform="translate(-1356 -67)"><rect width="20" height="22" transform="translate(1356 319)" fill="#404f57"/></g><g transform="translate(-1316 -67)"><rect width="20" height="22" transform="translate(1356 319)" fill="#404f57"/></g><g transform="translate(-1276 -67)"><rect width="20" height="22" transform="translate(1356 319)" fill="#404f57"/></g><g transform="translate(-1236 -67)"><rect width="20" height="22" transform="translate(1356 319)" fill="#404f57"/></g><g transform="translate(-1196 -67)"><rect width="20" height="22" transform="translate(1356 319)" fill="#404f57"/></g><g transform="translate(-1356 -25)"><rect width="20" height="22" transform="translate(1356 319)" fill="#404f57"/></g><g transform="translate(-1316 -25)"><rect width="20" height="22" transform="translate(1356 319)" fill="#404f57"/></g><g transform="translate(-1276 -25)"><rect width="20" height="22" transform="translate(1356 319)" fill="#404f57"/></g><g transform="translate(-1236 -25)"><rect width="20" height="22" transform="translate(1356 319)" fill="#404f57"/></g><g transform="translate(-1196 -25)"><rect width="20" height="22" transform="translate(1356 319)" fill="#404f57"/></g></g><g transform="matrix(1, 0, 0, 1, 1333, 208)" filter="url(#d)"><rect width="197" height="545" transform="translate(9 77)" fill="#576971"/></g><g transform="translate(1356 319)" clip-path="url(#f)"><g transform="translate(-1356 -319)"><rect width="20" height="22" transform="translate(1356 319)" fill="#667e89"/></g><g transform="translate(-1319 -319)"><rect width="20" height="22" transform="translate(1356 319)" fill="#667e89"/></g><g transform="translate(-1282 -319)"><rect width="20" height="22" transform="translate(1356 319)" fill="#667e89"/></g><g transform="translate(-1245 -319)"><rect width="20" height="22" transform="translate(1356 319)" fill="#667e89"/></g><g transform="translate(-1208 -319)"><rect width="20" height="22" transform="translate(1356 319)" fill="#667e89"/></g><g transform="translate(-1356 -277)"><rect width="20" height="22" transform="translate(1356 319)" fill="#667e89"/></g><g transform="translate(-1319 -277)"><rect width="20" height="22" transform="translate(1356 319)" fill="#667e89"/></g><g transform="translate(-1282 -277)"><rect width="20" height="22" transform="translate(1356 319)" fill="#667e89"/></g><g transform="translate(-1245 -277)"><rect width="20" height="22" transform="translate(1356 319)" fill="#667e89"/></g><g transform="translate(-1208 -277)"><rect width="20" height="22" transform="translate(1356 319)" fill="#667e89"/></g><g transform="translate(-1356 -235)"><rect width="20" height="22" transform="translate(1356 319)" fill="#667e89"/></g><g transform="translate(-1319 -235)"><rect width="20" height="22" transform="translate(1356 319)" fill="#667e89"/></g><g transform="translate(-1282 -235)"><rect width="20" height="22" transform="translate(1356 319)" fill="#667e89"/></g><g transform="translate(-1245 -235)"><rect width="20" height="22" transform="translate(1356 319)" fill="#667e89"/></g><g transform="translate(-1208 -235)"><rect width="20" height="22" transform="translate(1356 319)" fill="#667e89"/></g><g transform="translate(-1356 -193)"><rect width="20" height="22" transform="translate(1356 319)" fill="#667e89"/></g><g transform="translate(-1319 -193)"><rect width="20" height="22" transform="translate(1356 319)" fill="#667e89"/></g><g transform="translate(-1282 -193)"><rect width="20" height="22" transform="translate(1356 319)" fill="#667e89"/></g><g transform="translate(-1245 -193)"><rect width="20" height="22" transform="translate(1356 319)" fill="#667e89"/></g><g transform="translate(-1208 -193)"><rect width="20" height="22" transform="translate(1356 319)" fill="#667e89"/></g><g transform="translate(-1356 -151)"><rect width="20" height="22" transform="translate(1356 319)" fill="#667e89"/></g><g transform="translate(-1319 -151)"><rect width="20" height="22" transform="translate(1356 319)" fill="#667e89"/></g><g transform="translate(-1282 -151)"><rect width="20" height="22" transform="translate(1356 319)" fill="#667e89"/></g><g transform="translate(-1245 -151)"><rect width="20" height="22" transform="translate(1356 319)" fill="#667e89"/></g><g transform="translate(-1208 -151)"><rect width="20" height="22" transform="translate(1356 319)" fill="#667e89"/></g><g transform="translate(-1356 -109)"><rect width="20" height="22" transform="translate(1356 319)" fill="#667e89"/></g><g transform="translate(-1319 -109)"><rect width="20" height="22" transform="translate(1356 319)" fill="#667e89"/></g><g transform="translate(-1282 -109)"><rect width="20" height="22" transform="translate(1356 319)" fill="#667e89"/></g><g transform="translate(-1245 -109)"><rect width="20" height="22" transform="translate(1356 319)" fill="#667e89"/></g><g transform="translate(-1208 -109)"><rect width="20" height="22" transform="translate(1356 319)" fill="#667e89"/></g><g transform="translate(-1356 -67)"><rect width="20" height="22" transform="translate(1356 319)" fill="#667e89"/></g><g transform="translate(-1319 -67)"><rect width="20" height="22" transform="translate(1356 319)" fill="#667e89"/></g><g transform="translate(-1282 -67)"><rect width="20" height="22" transform="translate(1356 319)" fill="#667e89"/></g><g transform="translate(-1245 -67)"><rect width="20" height="22" transform="translate(1356 319)" fill="#667e89"/></g><g transform="translate(-1208 -67)"><rect width="20" height="22" transform="translate(1356 319)" fill="#667e89"/></g><g transform="translate(-1356 -25)"><rect width="20" height="22" transform="translate(1356 319)" fill="#667e89"/></g><g transform="translate(-1319 -25)"><rect width="20" height="22" transform="translate(1356 319)" fill="#667e89"/></g><g transform="translate(-1282 -25)"><rect width="20" height="22" transform="translate(1356 319)" fill="#667e89"/></g><g transform="translate(-1245 -25)"><rect width="20" height="22" transform="translate(1356 319)" fill="#667e89"/></g><g transform="translate(-1208 -25)"><rect width="20" height="22" transform="translate(1356 319)" fill="#667e89"/></g><g transform="translate(-1356 17)"><rect width="20" height="22" transform="translate(1356 319)" fill="#667e89"/></g><g transform="translate(-1319 17)"><rect width="20" height="22" transform="translate(1356 319)" fill="#667e89"/></g><g transform="translate(-1282 17)"><rect width="20" height="22" transform="translate(1356 319)" fill="#667e89"/></g><g transform="translate(-1245 17)"><rect width="20" height="22" transform="translate(1356 319)" fill="#667e89"/></g><g transform="translate(-1208 17)"><rect width="20" height="22" transform="translate(1356 319)" fill="#667e89"/></g><g transform="translate(-1356 59)"><rect width="20" height="22" transform="translate(1356 319)" fill="#667e89"/></g><g transform="translate(-1319 59)"><rect width="20" height="22" transform="translate(1356 319)" fill="#667e89"/></g><g transform="translate(-1282 59)"><rect width="20" height="22" transform="translate(1356 319)" fill="#667e89"/></g><g transform="translate(-1245 59)"><rect width="20" height="22" transform="translate(1356 319)" fill="#667e89"/></g><g transform="translate(-1208 59)"><rect width="20" height="22" transform="translate(1356 319)" fill="#667e89"/></g><g transform="translate(-1356 101)"><rect width="20" height="22" transform="translate(1356 319)" fill="#667e89"/></g><g transform="translate(-1319 101)"><rect width="20" height="22" transform="translate(1356 319)" fill="#667e89"/></g><g transform="translate(-1282 101)"><rect width="20" height="22" transform="translate(1356 319)" fill="#667e89"/></g><g transform="translate(-1245 101)"><rect width="20" height="22" transform="translate(1356 319)" fill="#667e89"/></g><g transform="translate(-1208 101)"><rect width="20" height="22" transform="translate(1356 319)" fill="#667e89"/></g></g><g transform="matrix(1, 0, 0, 1, 1333, 208)" filter="url(#g)"><rect width="197" height="545" transform="translate(293 6)" fill="#576971"/></g><g transform="translate(1639 231)" clip-path="url(#i)"><g transform="translate(-1356 -319)"><rect width="20" height="22" transform="translate(1356 319)" fill="#667e89"/></g><g transform="translate(-1319 -319)"><rect width="20" height="22" transform="translate(1356 319)" fill="#667e89"/></g><g transform="translate(-1282 -319)"><rect width="20" height="22" transform="translate(1356 319)" fill="#667e89"/></g><g transform="translate(-1245 -319)"><rect width="20" height="22" transform="translate(1356 319)" fill="#667e89"/></g><g transform="translate(-1208 -319)"><rect width="20" height="22" transform="translate(1356 319)" fill="#667e89"/></g><g transform="translate(-1356 -277)"><rect width="20" height="22" transform="translate(1356 319)" fill="#667e89"/></g><g transform="translate(-1319 -277)"><rect width="20" height="22" transform="translate(1356 319)" fill="#667e89"/></g><g transform="translate(-1282 -277)"><rect width="20" height="22" transform="translate(1356 319)" fill="#667e89"/></g><g transform="translate(-1245 -277)"><rect width="20" height="22" transform="translate(1356 319)" fill="#667e89"/></g><g transform="translate(-1208 -277)"><rect width="20" height="22" transform="translate(1356 319)" fill="#667e89"/></g><g transform="translate(-1356 -235)"><rect width="20" height="22" transform="translate(1356 319)" fill="#667e89"/></g><g transform="translate(-1319 -235)"><rect width="20" height="22" transform="translate(1356 319)" fill="#667e89"/></g><g transform="translate(-1282 -235)"><rect width="20" height="22" transform="translate(1356 319)" fill="#667e89"/></g><g transform="translate(-1245 -235)"><rect width="20" height="22" transform="translate(1356 319)" fill="#667e89"/></g><g transform="translate(-1208 -235)"><rect width="20" height="22" transform="translate(1356 319)" fill="#667e89"/></g><g transform="translate(-1356 -193)"><rect width="20" height="22" transform="translate(1356 319)" fill="#667e89"/></g><g transform="translate(-1319 -193)"><rect width="20" height="22" transform="translate(1356 319)" fill="#667e89"/></g><g transform="translate(-1282 -193)"><rect width="20" height="22" transform="translate(1356 319)" fill="#667e89"/></g><g transform="translate(-1245 -193)"><rect width="20" height="22" transform="translate(1356 319)" fill="#667e89"/></g><g transform="translate(-1208 -193)"><rect width="20" height="22" transform="translate(1356 319)" fill="#667e89"/></g><g transform="translate(-1356 -151)"><rect width="20" height="22" transform="translate(1356 319)" fill="#667e89"/></g><g transform="translate(-1319 -151)"><rect width="20" height="22" transform="translate(1356 319)" fill="#667e89"/></g><g transform="translate(-1282 -151)"><rect width="20" height="22" transform="translate(1356 319)" fill="#667e89"/></g><g transform="translate(-1245 -151)"><rect width="20" height="22" transform="translate(1356 319)" fill="#667e89"/></g><g transform="translate(-1208 -151)"><rect width="20" height="22" transform="translate(1356 319)" fill="#667e89"/></g><g transform="translate(-1356 -109)"><rect width="20" height="22" transform="translate(1356 319)" fill="#667e89"/></g><g transform="translate(-1319 -109)"><rect width="20" height="22" transform="translate(1356 319)" fill="#667e89"/></g><g transform="translate(-1282 -109)"><rect width="20" height="22" transform="translate(1356 319)" fill="#667e89"/></g><g transform="translate(-1245 -109)"><rect width="20" height="22" transform="translate(1356 319)" fill="#667e89"/></g><g transform="translate(-1208 -109)"><rect width="20" height="22" transform="translate(1356 319)" fill="#667e89"/></g><g transform="translate(-1356 -67)"><rect width="20" height="22" transform="translate(1356 319)" fill="#667e89"/></g><g transform="translate(-1319 -67)"><rect width="20" height="22" transform="translate(1356 319)" fill="#667e89"/></g><g transform="translate(-1282 -67)"><rect width="20" height="22" transform="translate(1356 319)" fill="#667e89"/></g><g transform="translate(-1245 -67)"><rect width="20" height="22" transform="translate(1356 319)" fill="#667e89"/></g><g transform="translate(-1208 -67)"><rect width="20" height="22" transform="translate(1356 319)" fill="#667e89"/></g><g transform="translate(-1356 -25)"><rect width="20" height="22" transform="translate(1356 319)" fill="#667e89"/></g><g transform="translate(-1319 -25)"><rect width="20" height="22" transform="translate(1356 319)" fill="#667e89"/></g><g transform="translate(-1282 -25)"><rect width="20" height="22" transform="translate(1356 319)" fill="#667e89"/></g><g transform="translate(-1245 -25)"><rect width="20" height="22" transform="translate(1356 319)" fill="#667e89"/></g><g transform="translate(-1208 -25)"><rect width="20" height="22" transform="translate(1356 319)" fill="#667e89"/></g><g transform="translate(-1356 17)"><rect width="20" height="22" transform="translate(1356 319)" fill="#667e89"/></g><g transform="translate(-1319 17)"><rect width="20" height="22" transform="translate(1356 319)" fill="#667e89"/></g><g transform="translate(-1282 17)"><rect width="20" height="22" transform="translate(1356 319)" fill="#667e89"/></g><g transform="translate(-1245 17)"><rect width="20" height="22" transform="translate(1356 319)" fill="#667e89"/></g><g transform="translate(-1208 17)"><rect width="20" height="22" transform="translate(1356 319)" fill="#667e89"/></g><g transform="translate(-1356 59)"><rect width="20" height="22" transform="translate(1356 319)" fill="#667e89"/></g><g transform="translate(-1319 59)"><rect width="20" height="22" transform="translate(1356 319)" fill="#667e89"/></g><g transform="translate(-1282 59)"><rect width="20" height="22" transform="translate(1356 319)" fill="#667e89"/></g><g transform="translate(-1245 59)"><rect width="20" height="22" transform="translate(1356 319)" fill="#667e89"/></g><g transform="translate(-1208 59)"><rect width="20" height="22" transform="translate(1356 319)" fill="#667e89"/></g><g transform="translate(-1356 101)"><rect width="20" height="22" transform="translate(1356 319)" fill="#667e89"/></g><g transform="translate(-1319 101)"><rect width="20" height="22" transform="translate(1356 319)" fill="#667e89"/></g><g transform="translate(-1282 101)"><rect width="20" height="22" transform="translate(1356 319)" fill="#667e89"/></g><g transform="translate(-1245 101)"><rect width="20" height="22" transform="translate(1356 319)" fill="#667e89"/></g><g transform="translate(-1208 101)"><rect width="20" height="22" transform="translate(1356 319)" fill="#667e89"/></g><g transform="translate(-1356 143)"><rect width="20" height="22" transform="translate(1356 319)" fill="#667e89"/></g><g transform="translate(-1319 143)"><rect width="20" height="22" transform="translate(1356 319)" fill="#667e89"/></g><g transform="translate(-1282 143)"><rect width="20" height="22" transform="translate(1356 319)" fill="#667e89"/></g><g transform="translate(-1245 143)"><rect width="20" height="22" transform="translate(1356 319)" fill="#667e89"/></g><g transform="translate(-1208 143)"><rect width="20" height="22" transform="translate(1356 319)" fill="#667e89"/></g><g transform="translate(-1356 185)"><rect width="20" height="22" transform="translate(1356 319)" fill="#667e89"/></g><g transform="translate(-1319 185)"><rect width="20" height="22" transform="translate(1356 319)" fill="#667e89"/></g><g transform="translate(-1282 185)"><rect width="20" height="22" transform="translate(1356 319)" fill="#667e89"/></g><g transform="translate(-1245 185)"><rect width="20" height="22" transform="translate(1356 319)" fill="#667e89"/></g><g transform="translate(-1208 185)"><rect width="20" height="22" transform="translate(1356 319)" fill="#667e89"/></g></g><g transform="matrix(1, 0, 0, 1, 1333, 208)" filter="url(#j)"><rect width="205" height="351" transform="translate(144 228)" fill="#46555c"/></g><g transform="translate(1488 456)" clip-path="url(#c)"><g transform="translate(-1356 -319)"><rect width="20" height="22" transform="translate(1356 319)" fill="#404f57"/></g><g transform="translate(-1316 -319)"><rect width="20" height="22" transform="translate(1356 319)" fill="#404f57"/></g><g transform="translate(-1276 -319)"><rect width="20" height="22" transform="translate(1356 319)" fill="#404f57"/></g><g transform="translate(-1236 -319)"><rect width="20" height="22" transform="translate(1356 319)" fill="#404f57"/></g><g transform="translate(-1196 -319)"><rect width="20" height="22" transform="translate(1356 319)" fill="#404f57"/></g><g transform="translate(-1356 -277)"><rect width="20" height="22" transform="translate(1356 319)" fill="#404f57"/></g><g transform="translate(-1316 -277)"><rect width="20" height="22" transform="translate(1356 319)" fill="#404f57"/></g><g transform="translate(-1276 -277)"><rect width="20" height="22" transform="translate(1356 319)" fill="#404f57"/></g><g transform="translate(-1236 -277)"><rect width="20" height="22" transform="translate(1356 319)" fill="#404f57"/></g><g transform="translate(-1196 -277)"><rect width="20" height="22" transform="translate(1356 319)" fill="#404f57"/></g><g transform="translate(-1356 -235)"><rect width="20" height="22" transform="translate(1356 319)" fill="#404f57"/></g><g transform="translate(-1316 -235)"><rect width="20" height="22" transform="translate(1356 319)" fill="#404f57"/></g><g transform="translate(-1276 -235)"><rect width="20" height="22" transform="translate(1356 319)" fill="#404f57"/></g><g transform="translate(-1236 -235)"><rect width="20" height="22" transform="translate(1356 319)" fill="#404f57"/></g><g transform="translate(-1196 -235)"><rect width="20" height="22" transform="translate(1356 319)" fill="#404f57"/></g><g transform="translate(-1356 -193)"><rect width="20" height="22" transform="translate(1356 319)" fill="#404f57"/></g><g transform="translate(-1316 -193)"><rect width="20" height="22" transform="translate(1356 319)" fill="#404f57"/></g><g transform="translate(-1276 -193)"><rect width="20" height="22" transform="translate(1356 319)" fill="#404f57"/></g><g transform="translate(-1236 -193)"><rect width="20" height="22" transform="translate(1356 319)" fill="#404f57"/></g><g transform="translate(-1196 -193)"><rect width="20" height="22" transform="translate(1356 319)" fill="#404f57"/></g><g transform="translate(-1356 -151)"><rect width="20" height="22" transform="translate(1356 319)" fill="#404f57"/></g><g transform="translate(-1316 -151)"><rect width="20" height="22" transform="translate(1356 319)" fill="#404f57"/></g><g transform="translate(-1276 -151)"><rect width="20" height="22" transform="translate(1356 319)" fill="#404f57"/></g><g transform="translate(-1236 -151)"><rect width="20" height="22" transform="translate(1356 319)" fill="#404f57"/></g><g transform="translate(-1196 -151)"><rect width="20" height="22" transform="translate(1356 319)" fill="#404f57"/></g><g transform="translate(-1356 -109)"><rect width="20" height="22" transform="translate(1356 319)" fill="#404f57"/></g><g transform="translate(-1316 -109)"><rect width="20" height="22" transform="translate(1356 319)" fill="#404f57"/></g><g transform="translate(-1276 -109)"><rect width="20" height="22" transform="translate(1356 319)" fill="#404f57"/></g><g transform="translate(-1236 -109)"><rect width="20" height="22" transform="translate(1356 319)" fill="#404f57"/></g><g transform="translate(-1196 -109)"><rect width="20" height="22" transform="translate(1356 319)" fill="#404f57"/></g><g transform="translate(-1356 -67)"><rect width="20" height="22" transform="translate(1356 319)" fill="#404f57"/></g><g transform="translate(-1316 -67)"><rect width="20" height="22" transform="translate(1356 319)" fill="#404f57"/></g><g transform="translate(-1276 -67)"><rect width="20" height="22" transform="translate(1356 319)" fill="#404f57"/></g><g transform="translate(-1236 -67)"><rect width="20" height="22" transform="translate(1356 319)" fill="#404f57"/></g><g transform="translate(-1196 -67)"><rect width="20" height="22" transform="translate(1356 319)" fill="#404f57"/></g><g transform="translate(-1356 -25)"><rect width="20" height="22" transform="translate(1356 319)" fill="#404f57"/></g><g transform="translate(-1316 -25)"><rect width="20" height="22" transform="translate(1356 319)" fill="#404f57"/></g><g transform="translate(-1276 -25)"><rect width="20" height="22" transform="translate(1356 319)" fill="#404f57"/></g><g transform="translate(-1236 -25)"><rect width="20" height="22" transform="translate(1356 319)" fill="#404f57"/></g><g transform="translate(-1196 -25)"><rect width="20" height="22" transform="translate(1356 319)" fill="#404f57"/></g></g></g></svg>