<svg xmlns="http://www.w3.org/2000/svg" width="171.042" height="164.783" viewBox="0 0 171.042 164.783">
  <g id="explosion-01" transform="translate(-23.34 -45.979)">
    <path id="Path_15" data-name="Path 15" d="M132.827,57.16l-31.144,43.017L74.74,63.285l17.41,42.279L48.213,74.891l26.943,33.575-48.083-2.9L73.5,122.145,23.34,143.285,76.4,136.237,37.019,170.228,80.127,152.4l-21.14,41.451,34.819-33.987-3.314,36.476L110.8,164.425l2.073,53.886,17-50.156,31.914,37.3-19.9-39.378,32.746,9.533L151.01,153.231l40.206-2.9-40.622-9.946,29.844-11.19-26.527-1.66L189.972,86.5l-46.838,24.041,6.216-28.187-14.092,21.556-1.244-27.359L116.6,99.761Z" transform="translate(0 -7.548)" fill="#ffc20e"/>
    <path id="Path_16" data-name="Path 16" d="M198.034,237.043a19.021,19.021,0,0,0,21.5-24.132c6.957-.513,12.055-7.662,12.256-14.622s-3.382-13.523-7.756-18.959c2.772-5.907-1.6-13.28-7.655-15.707s-12.968-1.092-19.093,1.157c-2.028-5.829-8.3-9.329-14.436-9.939s-12.253,1.108-18.2,2.814a12.841,12.841,0,0,0-20.717,3.6,16.321,16.321,0,0,0-19.853,17.988,16.448,16.448,0,0,0-5.475,28.025,20.636,20.636,0,0,0,14.862,28.067c6.4,10.323,21.676,13.819,31.927,7.3a20.854,20.854,0,0,0,32.626-5.589Z" transform="translate(-60.466 -72.839)" fill="#f7921e"/>
    <path id="Path_17" data-name="Path 17" d="M228.729,256.431A13.062,13.062,0,0,0,243.49,239.86c4.773-.351,8.273-5.257,8.412-10.047s-2.323-9.283-5.326-13.013c1.9-4.055-1.1-9.117-5.254-10.784s-8.9-.751-13.108.793c-1.394-4-5.7-6.4-9.913-6.823s-8.412.76-12.484,1.93a8.815,8.815,0,0,0-14.222,2.476,11.2,11.2,0,0,0-13.631,12.347,11.291,11.291,0,0,0-3.759,19.239,14.17,14.17,0,0,0,10.2,19.271c4.393,7.087,14.882,9.488,21.92,5.017a14.316,14.316,0,0,0,22.4-3.841Z" transform="translate(-99.206 -103.519)" fill="#f47920"/>
    <path id="Path_18" data-name="Path 18" d="M260.571,276.579a6.872,6.872,0,0,0,7.766-8.721c2.512-.185,4.354-2.765,4.426-5.287s-1.222-4.874-2.8-6.846c1-2.135-.578-4.8-2.765-5.676s-4.685-.393-6.9.419c-.731-2.106-3-3.373-5.215-3.59a17.83,17.83,0,0,0-6.57,1.014,4.64,4.64,0,0,0-7.473,1.3,5.9,5.9,0,0,0-7.174,6.5,5.943,5.943,0,0,0-1.979,10.125,7.457,7.457,0,0,0,5.371,10.141,8.649,8.649,0,0,0,11.535,2.638,7.538,7.538,0,0,0,11.779-2.015Z" transform="translate(-139.396 -135.39)" fill="#f04c23"/>
    <path id="Path_19" data-name="Path 19" d="M322.446,180.855c0-1.514-1.465-3-2.723-3.642a4.873,4.873,0,0,0-5.683,1.3.689.689,0,1,0,.975.975,3.285,3.285,0,0,1,3.727-.591,2.752,2.752,0,0,1,1.371,1.764A3.9,3.9,0,0,0,317.839,182c-.406.478.114,1.3.705.913,2.171-1.4,4.169-.448,5.134,1.8a.82.82,0,0,0,1.521-.409A4.088,4.088,0,0,0,322.446,180.855Z" transform="translate(-196.108 -88.295)" fill="#f47920"/>
    <path id="Path_20" data-name="Path 20" d="M173.422,198.912c-4.344-.855-8.448,2.84-7.847,7.051a3.941,3.941,0,0,0-1.319,3.184c.058.725,1.115,1.183,1.495.4a14.482,14.482,0,0,1,.881-1.589,1.033,1.033,0,0,0,1.16-.949,2.719,2.719,0,0,1,.019-.4,3.776,3.776,0,0,1,1.95-.816.743.743,0,0,0,0-1.485,5.569,5.569,0,0,0-1.644.224,5.162,5.162,0,0,1,5.072-3.88C174.156,200.625,174.442,199.111,173.422,198.912Z" transform="translate(-95.124 -103.158)" fill="#f47920"/>
    <path id="Path_21" data-name="Path 21" d="M148.537,337.492c-3.46-1.6-5.391-4.331-4.081-8.191.348-1.03-1.17-1.6-1.706-.721-2.58,4.224.02,10.589,5.316,10.651C148.946,339.24,149.4,337.892,148.537,337.492Z" transform="translate(-79.931 -190.483)" fill="#f47920"/>
    <path id="Path_22" data-name="Path 22" d="M328.172,404.141a26.375,26.375,0,0,1-6.359-.39.655.655,0,0,0-.348,1.264c.263.081.533.156.8.227a7.992,7.992,0,0,1-2.986,2c-2,.689-4.3.422-6.369.247-.686-.055-.842,1.089-.162,1.2,3.412.585,10.251,1.3,11.727-3.025a10.3,10.3,0,0,0,3.87-.231.651.651,0,0,0-.175-1.29Z" transform="translate(-195.079 -241.507)" fill="#f47920"/>
    <path id="Path_23" data-name="Path 23" d="M444.785,279.071a.787.787,0,1,0-1.358.8,5.975,5.975,0,0,1-.471,5.524.819.819,0,0,0,1.28.991A5.753,5.753,0,0,0,444.785,279.071Z" transform="translate(-283.202 -157.092)" fill="#f47920"/>
    <path id="Path_24" data-name="Path 24" d="M368.355,246.421c1.108-1.677-.383-4.3-1.657-5.439a5.247,5.247,0,0,0-6.258-.419c-.556.344-.2,1.339.458,1.092a4.365,4.365,0,0,1,4.455.669c1.007.887.946,1.927,1.072,3a4.874,4.874,0,0,0-2.98,0,.655.655,0,1,0,.348,1.264c2.788-.705,4.507,1.625,4.344,4.2-.055.864,1.173.929,1.43.192A4.13,4.13,0,0,0,368.355,246.421Z" transform="translate(-227.382 -130.793)" fill="#f7921e"/>
    <path id="Path_25" data-name="Path 25" d="M239.36,358.8c-2.378,2.326-5.348-.559-6.258-2.8-.26-.65-1.274-.409-1.066.292a10.04,10.04,0,0,0,.994,2.326,16.678,16.678,0,0,1-3.165-.526c-2.138-.673-3.594-2.167-5.244-3.574a.51.51,0,0,0-.8.617c1.5,3.418,7.21,6.726,10.911,5.423a.725.725,0,0,0,.068-.039,4.016,4.016,0,0,0,.725.374,4.066,4.066,0,0,0,4.76-1.167C240.8,359.089,239.981,358.2,239.36,358.8Z" transform="translate(-135.296 -208.191)" fill="#f7921e"/>
    <path id="Path_26" data-name="Path 26" d="M199.887,276.9a1.6,1.6,0,0,1-.773-3.028.893.893,0,0,0-.686-1.625,3.433,3.433,0,0,0-2.395,4.032A3.193,3.193,0,0,0,200.1,278.5a.819.819,0,0,0-.214-1.6Z" transform="translate(-116.546 -152.729)" fill="#f7921e"/>
    <path id="Path_27" data-name="Path 27" d="M255.672,221.149c-2.72-1.768-6.615.939-7.249,3.727a.837.837,0,0,0,1.517.65,4.981,4.981,0,0,1,2.083-2.063,7.794,7.794,0,0,1,3.142-.429,1.014,1.014,0,0,0,.507-1.885Z" transform="translate(-151.933 -117.872)" fill="#f7921e"/>
    <path id="Path_28" data-name="Path 28" d="M288.149,275.038a4.919,4.919,0,0,0-4.331-3.363.8.8,0,0,0-.075-.546c-1.16-2.054-3.987-2.31-6.06-1.777a5.728,5.728,0,0,0-4.1,4.64c-.084.65.907.848,1.2.325a5.668,5.668,0,0,1,3.408-3.145c1.374-.413,2.547.195,3.73.757a4.549,4.549,0,0,0-2.742,3.275c-.153.8,1.02,1.15,1.238.341a3,3,0,0,1,3.685-2.122,6.045,6.045,0,0,1,3.009,2.213A.625.625,0,0,0,288.149,275.038Z" transform="translate(-168.927 -150.631)" fill="#f47920"/>
    <path id="Path_29" data-name="Path 29" d="M315.429,303.721c-.686-.552-1.644.341-.991.991a1.9,1.9,0,0,1-.325,2.72,8.24,8.24,0,0,1-3.574,1.556c-.757.2-.627,1.491.192,1.4,1.992-.214,3.925-.526,5.144-2.274A3.353,3.353,0,0,0,315.429,303.721Z" transform="translate(-193.542 -173.879)" fill="#f47920"/>
    <path id="Path_30" data-name="Path 30" d="M266.189,316.928a4.321,4.321,0,0,1-4.614-1.4.682.682,0,0,0-.325-.562,3.6,3.6,0,0,1-.166-2.512.843.843,0,0,0-1.625-.448,5.238,5.238,0,0,0-.3,2.382,7.8,7.8,0,0,1-1.885-.65,4.435,4.435,0,0,1-2.372-3.249c-.114-.767-1.248-.523-1.3.175-.169,2.96,3.22,6.031,6.242,5.871a4.85,4.85,0,0,0,6.976,1.917A.836.836,0,0,0,266.189,316.928Z" transform="translate(-155.443 -178.244)" fill="#f47920"/>
    <path id="Path_31" data-name="Path 31" d="M202.961,48.49c-.806-.855-1.933.377-1.254,1.251,1.969,2.521,2.976,5.5,4,8.49.325.923,1.81.822,1.771-.24C207.328,54.284,205.44,51.139,202.961,48.49Z" transform="translate(-120.27 -1.501)" fill="#ffc20e"/>
    <path id="Path_32" data-name="Path 32" d="M129.789,106.2a5.121,5.121,0,0,0-2.72-3.054.595.595,0,1,0-.6,1.027,10.264,10.264,0,0,1,2.235,2.486C129.074,107.189,130,106.887,129.789,106.2Z" transform="translate(-69.42 -38.54)" fill="#ffc20e"/>
    <path id="Path_33" data-name="Path 33" d="M59.27,153.963a25.151,25.151,0,0,0-11.142-6.229c-1.186-.354-1.654,1.436-.507,1.829a49.214,49.214,0,0,1,10.674,5.66C59.075,155.721,59.9,154.59,59.27,153.963Z" transform="translate(-15.947 -68.661)" fill="#ffc20e"/>
    <path id="Path_34" data-name="Path 34" d="M106.649,156.065a34.613,34.613,0,0,0-3.2-2.274c-1.033-.65-1.911.929-.942,1.625a32.392,32.392,0,0,0,3.145,1.95C106.445,157.787,107.4,156.679,106.649,156.065Z" transform="translate(-53.163 -72.677)" fill="#ffc20e"/>
    <path id="Path_35" data-name="Path 35" d="M39.959,274.7a16.91,16.91,0,0,0-7.993-.156c-1.134.2-.634,1.868.471,1.709a35.727,35.727,0,0,1,7.314,0C40.664,276.3,40.787,274.953,39.959,274.7Z" transform="translate(-5.389 -154.03)" fill="#ffc20e"/>
    <path id="Path_36" data-name="Path 36" d="M49.446,331.971A26.837,26.837,0,0,0,41,335.562a1.03,1.03,0,0,0,1.04,1.777c2.651-1.4,5.485-2.274,8.188-3.545C51.311,333.294,50.48,331.8,49.446,331.971Z" transform="translate(-11.579 -193.057)" fill="#ffc20e"/>
    <path id="Path_37" data-name="Path 37" d="M53.263,397.487a17.31,17.31,0,0,0-2.274.975c-.929.461-.114,1.852.812,1.387a16.628,16.628,0,0,0,2-1.141C54.384,398.313,54.03,397.227,53.263,397.487Z" transform="translate(-18.388 -237.267)" fill="#ffc20e"/>
    <path id="Path_38" data-name="Path 38" d="M70.1,426.457A20.425,20.425,0,0,0,67.44,427.8a.955.955,0,0,0,.975,1.641,20.405,20.405,0,0,0,2.473-1.641C71.505,427.318,70.829,426.155,70.1,426.457Z" transform="translate(-29.463 -256.818)" fill="#ffc20e"/>
    <path id="Path_39" data-name="Path 39" d="M97.35,462.8c-2.047,1.625-4,3.308-5.94,5.046-.975.864.448,2.248,1.41,1.41,1.95-1.706,3.88-3.428,5.735-5.251C99.361,463.211,98.2,462.132,97.35,462.8Z" transform="translate(-45.732 -281.243)" fill="#ffc20e"/>
    <path id="Path_40" data-name="Path 40" d="M185.05,494.749A10.194,10.194,0,0,0,184,497.884c-.062.76.923.848,1.3.351a9.789,9.789,0,0,0,1.173-2.892C186.727,494.518,185.395,493.937,185.05,494.749Z" transform="translate(-108.458 -302.689)" fill="#ffc20e"/>
    <path id="Path_41" data-name="Path 41" d="M218.307,499.684a69.178,69.178,0,0,1-3.334,9.644c-.409,1.02,1.205,1.625,1.738.731a32.3,32.3,0,0,0,3.574-9.829C220.572,498.94,218.619,498.387,218.307,499.684Z" transform="translate(-129.322 -305.785)" fill="#ffc20e"/>
    <path id="Path_42" data-name="Path 42" d="M248.114,526.77a17.039,17.039,0,0,0-.708,2.944c-.114.9,1.166.894,1.456.2a15.779,15.779,0,0,0,.773-2.723.79.79,0,0,0-1.521-.419Z" transform="translate(-151.256 -324.202)" fill="#ffc20e"/>
    <path id="Path_43" data-name="Path 43" d="M336.974,514.364c-.172-1.579-2.625-1.625-2.512,0,.218,3.09.429,6.313,1.589,9.212.422,1.049,2.184,1.024,2.118-.286C338.02,520.29,337.3,517.334,336.974,514.364Z" transform="translate(-210.028 -315.383)" fill="#ffc20e"/>
    <path id="Path_44" data-name="Path 44" d="M367.551,505a11.2,11.2,0,0,0-.679-1.95c-.38-.868-1.849-.24-1.527.65a11.133,11.133,0,0,0,.855,1.868A.741.741,0,0,0,367.551,505Z" transform="translate(-230.848 -308.275)" fill="#ffc20e"/>
    <path id="Path_45" data-name="Path 45" d="M400.515,493.206c-1.3-2.3-2.843-4.419-4.361-6.58-.8-1.141-2.684-.078-1.891,1.1A79.046,79.046,0,0,0,399,494.376C399.716,495.247,401.041,494.132,400.515,493.206Z" transform="translate(-250.272 -297.14)" fill="#ffc20e"/>
    <path id="Path_46" data-name="Path 46" d="M439.018,444.559a19.4,19.4,0,0,0-2.375-2.661c-.673-.689-1.686.341-1.046,1.046a19.012,19.012,0,0,0,2.518,2.518C438.645,445.868,439.369,445.088,439.018,444.559Z" transform="translate(-278.167 -267.121)" fill="#ffc20e"/>
    <path id="Path_47" data-name="Path 47" d="M473.2,436.5c-3.639-1.56-7.236-2.837-10.485-5.16-.874-.624-2,.825-1.15,1.491,3.269,2.583,6.989,4.828,11.2,5.261A.859.859,0,0,0,473.2,436.5Z" transform="translate(-295.634 -260.046)" fill="#ffc20e"/>
    <path id="Path_48" data-name="Path 48" d="M506.076,401.212a8.6,8.6,0,0,1-4.049-.949.806.806,0,0,0-.812,1.391,6.564,6.564,0,0,0,5,.731A.6.6,0,0,0,506.076,401.212Z" transform="translate(-322.333 -239.101)" fill="#ffc20e"/>
    <path id="Path_49" data-name="Path 49" d="M534.986,360.806a19.234,19.234,0,0,0-3.09-.114.949.949,0,0,0,0,1.9,19.237,19.237,0,0,0,3.09-.11.838.838,0,0,0,0-1.673Z" transform="translate(-342.695 -212.442)" fill="#ffc20e"/>
    <path id="Path_50" data-name="Path 50" d="M520.184,299.688c-3.867-.27-7.824.383-11.675.734-1.28.117-1.326,2.06,0,2.028,3.967-.094,8.048.084,11.961-.65C521.731,301.569,521.331,299.766,520.184,299.688Z" transform="translate(-326.866 -171.229)" fill="#ffc20e"/>
    <path id="Path_51" data-name="Path 51" d="M535.565,262.658a1.469,1.469,0,0,1-1.488.767c-1.2-.1-1.17,1.966,0,1.833a3.061,3.061,0,0,0,2.694-2.093C537.027,262.444,535.932,262.018,535.565,262.658Z" transform="translate(-344.186 -146.063)" fill="#ffc20e"/>
    <path id="Path_52" data-name="Path 52" d="M513.744,214.424c-3.493,1.553-6.908,3.249-10.469,4.646-1.062.416-.627,2.135.478,1.738a53.957,53.957,0,0,0,10.817-4.965A.822.822,0,0,0,513.744,214.424Z" transform="translate(-323.58 -113.656)" fill="#ffc20e"/>
    <path id="Path_53" data-name="Path 53" d="M460.431,146.3a11.645,11.645,0,0,1-4.026,2.781c-1.206.487-.712,2.456.546,1.989a8.62,8.62,0,0,0,4.643-3.873A.743.743,0,0,0,460.431,146.3Z" transform="translate(-291.885 -67.576)" fill="#ffc20e"/>
    <path id="Path_54" data-name="Path 54" d="M436.964,112.5a96.084,96.084,0,0,1-10.134,9.787c-.712.569.247,1.813.975,1.264a46.69,46.69,0,0,0,10.3-10.173C438.583,112.7,437.517,111.905,436.964,112.5Z" transform="translate(-272.217 -44.767)" fill="#ffc20e"/>
    <path id="Path_55" data-name="Path 55" d="M393.86,95.042a31.19,31.19,0,0,0-2.807,3.649.775.775,0,0,0,1.212.936,29.184,29.184,0,0,0,2.924-3.551C395.787,95.308,394.474,94.3,393.86,95.042Z" transform="translate(-248.156 -32.946)" fill="#ffc20e"/>
    <path id="Path_56" data-name="Path 56" d="M364.464,46.636c-1.686,4.062-3.62,8.013-5.287,12.081-.357.871,1.011,1.368,1.469.621a74.529,74.529,0,0,0,5.712-12.178C366.823,45.96,364.929,45.489,364.464,46.636Z" transform="translate(-226.676)" fill="#ffc20e"/>
    <path id="Path_57" data-name="Path 57" d="M270.867,57.354c-.409-.845-1.774-.247-1.5.634a23.9,23.9,0,0,1,.715,4.754.764.764,0,0,0,1.491.2A7.531,7.531,0,0,0,270.867,57.354Z" transform="translate(-166.061 -7.405)" fill="#ffc20e"/>
    <path id="Path_58" data-name="Path 58" d="M298.991,46.723a60.284,60.284,0,0,0-1.732,7.6.843.843,0,0,0,1.625.445,59,59,0,0,0,1.732-7.6A.843.843,0,0,0,298.991,46.723Z" transform="translate(-184.909 -0.087)" fill="#ffc20e"/>
  </g>
</svg>
