<svg xmlns="http://www.w3.org/2000/svg" xmlns:xlink="http://www.w3.org/1999/xlink" width="86" height="180.95" viewBox="0 0 86 180.95"><defs><filter id="a" x="10" y="45" width="66" height="82" filterUnits="userSpaceOnUse"><feOffset dy="3" input="SourceAlpha"/><feGaussianBlur stdDeviation="3" result="b"/><feFlood flood-opacity="0.161"/><feComposite operator="in" in2="b"/><feComposite in="SourceGraphic"/></filter><filter id="c" x="10" y="109" width="66.286" height="71.95" filterUnits="userSpaceOnUse"><feOffset dy="3" input="SourceAlpha"/><feGaussianBlur stdDeviation="3" result="d"/><feFlood flood-opacity="0.161"/><feComposite operator="in" in2="d"/><feComposite in="SourceGraphic"/></filter></defs><g transform="translate(-135 -771)"><g transform="matrix(1, 0, 0, 1, 135, 771)" filter="url(#a)"><rect width="48" height="64" transform="translate(19 51)" fill="#edc620"/></g><rect width="48" height="36" transform="translate(154 786)" fill="#533a00"/><rect width="19" height="54" transform="translate(135 822)" fill="#d1af1f"/><rect width="19" height="54" transform="translate(202 822)" fill="#d1af1f"/><ellipse cx="9.5" cy="9" rx="9.5" ry="9" transform="translate(135 868)" fill="#533a00"/><ellipse cx="9.5" cy="9" rx="9.5" ry="9" transform="translate(202 868)" fill="#533a00"/><g transform="matrix(1, 0, 0, 1, 135, 771)" filter="url(#c)"><path d="M2144,2015v53.95h19.761v-35.979h9.078v35.979h19.447V2015Z" transform="translate(-2125 -1900)" fill="#384371"/></g><circle cx="7" cy="7" r="7" transform="translate(160 790)" fill="#fff"/><circle cx="7" cy="7" r="7" transform="translate(180 790)" fill="#fff"/><circle cx="4" cy="4" r="4" transform="translate(163 793)"/><circle cx="4" cy="4" r="4" transform="translate(183 793)"/><path d="M2153,1940.507s11.062,9.726,29.306,0" transform="translate(-1990 -1129)" fill="none" stroke="#fff" stroke-linecap="round" stroke-width="1"/><path d="M2164,1935.985h6.685l-3.2,3.769Z" transform="translate(-1990 -1119)" fill="#362601"/><rect width="48" height="15" transform="translate(154 771)" fill="#edc620"/><rect width="20" height="9" transform="translate(154 940)" fill="#292929"/><rect width="20" height="9" transform="translate(183 940)" fill="#292929"/></g></svg>