<svg id="f6341b75-7941-4168-9f47-c5d96fdeeaf9" data-name="Layer 2" xmlns="http://www.w3.org/2000/svg" viewBox="0 0 480 252"><defs><style>.e0afff10-7c74-4419-80db-7e3ad0f32c25{fill:#1e2121;}.eb2149b6-9205-46d0-b200-d2a2600a2c96{fill:#242b2b;}.e6c35bb3-5b69-4476-afb1-ffa3be8570eb{fill:#464f4f;}.a467e39a-d2af-4d99-9ed7-d7fc6422ee84{fill:#3b4444;}.b4174872-ea63-4a11-83f9-5d2115f40c65{fill:#343d3d;}.f274a61d-d579-490c-9549-207abdca069c{fill:#222828;}.f7f6ed30-828f-4dba-a95f-bec3da003210{fill:#939e9a;}.ab78d3b3-79b2-4d12-aa15-4cbac634e869{fill:#35201c;}.bb0a9fcd-7848-4519-a897-6f245f0959e6{fill:#ea8b73;}.a71113d4-d80a-4c9e-911c-10c186ee9d1d{fill:#151919;}.b948fbcc-3282-46fe-a7ed-0a96815604d8{fill:#82823f;}.bdcdeaaa-f732-4314-9cb7-ccf4e9e9bbb3{fill:#141414;}</style></defs><title>bottom</title><path class="e0afff10-7c74-4419-80db-7e3ad0f32c25" d="M273.88,103.29c1.28-1.29,9.09-6.56,9.09-6.56V26.55l6.06-3s12.62,9.6,17.67,9.09,12.11-3.53,12.62-6.06,43.42,21.71,43.42,21.71,15.65-6.56,23.73-6.56,44.42-18.18,44.42-18.18v5.56S440,24,442,23.52s4.3-9.58,12.6-8.12,18.5,7.81,21.95,6.35S480,23.7,480,23.7V56.39S460.94,72,454.6,72.49s-17.57-2.93-25.37,2-52.29,7.32-52.29,7.32-42.85,1.15-58,8.14a134,134,0,0,0-27.58,17.71l-12,2s-28,19.28-24.09,23.67C255.34,133.23,247.33,130.2,273.88,103.29Z"/><polygon class="eb2149b6-9205-46d0-b200-d2a2600a2c96" points="244.63 136.9 316 67.08 480 44.33 480 121.9 255.34 190.17 244.63 136.9"/><path class="e6c35bb3-5b69-4476-afb1-ffa3be8570eb" d="M362.57,107s5.66-11.45,21.69-9.38,27-4.66,27-4.66l7.15-3,7.75-2.65L445.62,80a84,84,0,0,1,11.05,3.55c5.17,2.14,23.33,0,23.33,0V193.79H433.4l-80.17-63.58Z"/><path class="e0afff10-7c74-4419-80db-7e3ad0f32c25" d="M251.73,117.25s1.45,18.36,7.51,20.38-7.51,22.71-7.51,22.71l-4.1,21.71-60.08-7.19,22.21-52.38Z"/><path class="e6c35bb3-5b69-4476-afb1-ffa3be8570eb" d="M0,18l16.9-2s9.59-5.55,15.65-3,10.6-5,10.6-5l9.6-2.52L68.9,0S75,20,84.05,20.49s10.6-7.06,10.6-7.06L101.72,16l2.52,4.57s20,10.07,24.39,17.14c0,0,24.59.51,26.6,2.52s11.3,6.06,11.3,6.06S177.45,76.54,184,79.06l9.09,4.5s14.64,18.72,19.69,23.27L229,117.25s16.29,4.87,22.78,0L240,126s-12.06-3.55-13.58,0-.5,13.14-.5,13.14l-3.54,14.64-7.07,10.6s35.48,0,36.42-4,27.7,21.21,27.7,21.21V252H0Z"/><path class="a467e39a-d2af-4d99-9ed7-d7fc6422ee84" d="M267.28,187.76l6.23-12.9h5.7s1-14.58,7.77-37.91c0,0,10.37,0,13.48-2.59s7.78-11.92,7.78-11.92l6.22-5.19L331.05,126l-37.33,95.45h-42S268.32,195,267.28,187.76Z"/><path class="a467e39a-d2af-4d99-9ed7-d7fc6422ee84" d="M16.9,126s7.77-11.34,21.25-7.19c0,0,30.59-3.11,33.18-10.89H88.44l-3.63-4.66,3.63-4.67s5.7,4.15,14-3.11,14-11.92,14-11.92,1.39,36.28,21.17,45.62c0,0,20.3,29,28.08,30.06s-40.43,2.6-40.43,2.6l-20.74-5.19-.52,5.19,9.85,3.11H87.92l-27,11.92Z"/><path class="b4174872-ea63-4a11-83f9-5d2115f40c65" d="M0,115H6.51s12,9.59,15.12,11,5.73-7.92,5.73-7.92,13.55,38.56,18.24,38,12,12.51,12,12.51h3.35s3.78,4.63,7.58,4.63S79.1,174.61,82.36,180s15.45,13,15.45,13l57.46,34.45,139.23-14-2.72-18.26s6.12-28.66,11.87-31.75,12.84-11.07,12.84-15.94,8.85-15,8.85-15,.89-12,3.54-14.16,2.22-17.71,2.22-17.71a14.53,14.53,0,0,0,2.21-9.73c-.89-5.31,15.49,13.72,15.49,16.82s7.08-8.86,11.95-7.53-2.21,18.15,5.31,20.36,9.74-8,9.74-8h8s10.62,16.37,16.82,16.81c0,0,15.93,25.68,25.67,27v-17.7l9.29-9.74,2.66,13.28,4.87,16.51L463,167v85H0Z"/><polygon class="f274a61d-d579-490c-9549-207abdca069c" points="148.62 240.38 162.43 248.45 373.59 184.33 382.51 169.35 148.62 240.38"/><path class="f7f6ed30-828f-4dba-a95f-bec3da003210" d="M138.07,221s2.36.1,4.45,5,6.09,14.47,6.09,14.47l233.9-71,16.4-27.61Z"/><polygon class="ab78d3b3-79b2-4d12-aa15-4cbac634e869" points="142.52 225.91 394.34 149.45 398.91 141.74 138.07 220.95 142.52 225.91"/><path class="f7f6ed30-828f-4dba-a95f-bec3da003210" d="M146.86,218.28s0-17.28,8.45-30l75.9-23.05s4,6.76,7.16,5.51l45.31-13.48s10.4-10,8.68-13.89l27.14-8.24,14.69,6.79,11.31-3.43,21.75,12.88Z"/><path class="ab78d3b3-79b2-4d12-aa15-4cbac634e869" d="M231.21,165.22s2.82,6.78,6.55,6.88L284.29,158s10.57-11,8.07-14.61c0,0,1.2,4.27-8.68,13.89l-45.31,13.48S235.42,171.93,231.21,165.22Z"/><polygon class="bb0a9fcd-7848-4519-a897-6f245f0959e6" points="334.19 141.91 334.74 142.25 346.07 138.81 345.5 138.48 334.19 141.91"/><path class="eb2149b6-9205-46d0-b200-d2a2600a2c96" d="M406.57,202.94s2-2.63,25.57,0c0,0,1.22-12.8,21.92-10.36,0,0,17.38-9.34,25.94-3.66V252H0V184.5s43.29,5.24,46.13,3.61,17-10.14,23.54-9.33,8.93,13,13.4,12.58,17.45,3.65,19.48.41,5.28-7.31,13-6.5,32.62,35.31,42.29,34.91,103.43-9.74,104.64-13,17.86-4.25,17.86-4.25,7.31-8.33,17.46-9.14c0,0,4.06-5.28,10.14-4.88,0,0,10.56,2,18.27-12.17,0,0-2-12.18,31.66,1.62,0,0,10.15,3.25,19.48,2.84C377.34,181.21,404.13,192.19,406.57,202.94Z"/><path class="a71113d4-d80a-4c9e-911c-10c186ee9d1d" d="M0,184.5a14.12,14.12,0,0,0,8.54-5.59s.69-3.6,1.94-3.6,11.74-1,13.49,0,9.24,21,28.48,29.22l31.22,19.24s1.5-5.75,1.25-9.5l2.5,1s2-19.73,5-25.47c0,0,5.75,2.24,3.5,18.73,0,0,12.74,3.5,16,1,0,0,5.77,42.47,10,42.47H0Z"/><path class="a71113d4-d80a-4c9e-911c-10c186ee9d1d" d="M128.63,229.89l-4.92,13.37L121.87,252h6.76S126.87,239.74,128.63,229.89Z"/><path class="a71113d4-d80a-4c9e-911c-10c186ee9d1d" d="M133.56,252s1.75-11.91,4.57-14.72c0,0-1.41,7,0,7.36s1.41,7.36,3.52,7.36Z"/><path class="a71113d4-d80a-4c9e-911c-10c186ee9d1d" d="M157.83,252s4.57-18.59,2.11-20.7h5.63l1.34,4.36,2.29.17.88,3.87,5.62.35s5.63-1.05,8.1-3.87c0,0,0,12,8.09,8.46,0,0,2.46,2.1,2.81-21.83h1.94s11.57,2.4,17-2.77c0,0,11-6.56,14.49-17.1h3.23l5.56,7s.64,15,3.1,19.93c0,0,9.78,17.6,15.34,22.11Z"/><path class="a71113d4-d80a-4c9e-911c-10c186ee9d1d" d="M411.25,252s27.17-14.13,36.8-17.53c0,0,6.22-4.53,6.79-14.15,0,0,25.16-17,25.16-12.46V252Z"/><path class="b948fbcc-3282-46fe-a7ed-0a96815604d8" d="M201.78,172.82l-11.41-32.74a16.31,16.31,0,0,1,14.13-5.5l12,33.78Z"/><path class="b948fbcc-3282-46fe-a7ed-0a96815604d8" d="M182,178.94,170.55,146.2a16.28,16.28,0,0,1,14.13-5.5l12,33.77Z"/><path class="bdcdeaaa-f732-4314-9cb7-ccf4e9e9bbb3" d="M174.82,159.11s8.24-6.74,15.34-3.48c0,0-3.21-14.53-5.19-14.64s-7.38-2.3-14.5,5.64Z"/><path class="bdcdeaaa-f732-4314-9cb7-ccf4e9e9bbb3" d="M195.08,152.83s8.24-6.74,15.34-3.49c0,0-3.21-14.53-5.19-14.63s-7.38-2.31-14.5,5.64Z"/></svg>