<svg id="Layer_1" data-name="Layer 1" xmlns="http://www.w3.org/2000/svg" viewBox="0 0 67.13 75.6"><defs><style>.cls-1{fill:#e5efec;}.cls-2{fill:#76b2ab;}</style></defs><title>single bubble</title><path class="cls-1" d="M9.73,30s3.33-19,12.86-20.48c0,0,.95,4.76,5.71,5.24C28.3,14.72,14.82,17.79,9.73,30Z"/><path class="cls-2" d="M0,37.69C0,16.73,12.71,0,33.45,0S67.12,16.73,67.12,37.69,54.19,75.6,33.45,75.6,0,58.65,0,37.69Zm62.44,0c0-18.51-10.48-33.9-29-33.9S4.68,19.18,4.68,37.69c0,18.73,10.26,34.12,28.77,34.12S62.44,56.42,62.44,37.69Z"/></svg>