<svg xmlns="http://www.w3.org/2000/svg" viewBox="0 0 1505 253.868"><defs><style>.a{fill:#6ba5a0;}.b{fill:#527c77;}.c{fill:#5e8e87;}.d{fill:#72aaa1;}.e{fill:#9ad8ca;}.f{fill:#424f50;}.g{fill:#d4d8d6;}.h{fill:#ea8b73;}.i{fill:#e5efec;}.j{fill:#91c9c7;}.k{fill:#3c706f;}</style></defs><g transform="translate(0 -128.031)"><path class="a" d="M9.73,173.045,283.563,70.84H1484.234l-235.22,102.205Z" transform="translate(20.766 197.728)"/><path class="b" d="M9.73,173.045,652.2,70.84H283.563Z" transform="translate(20.766 197.728)"/><path class="c" d="M376.02,70.84l208.893,51.118L702.507,70.84Z" transform="translate(802.493 197.728)"/><path class="d" d="M256.16,155.631,487.87,79l235.22,76.631Z" transform="translate(546.69 215.142)"/><path class="e" d="M48.93,173.045,731.8,70.84H842.378L568.545,173.045Z" transform="translate(104.425 197.728)"/><path class="f" d="M113.85,77.07l34.069,36.764h691.65l40.4-36.764Z" transform="translate(242.976 211.023)"/><path class="g" d="M106.46,55.5s7.021,2.476,8.87,18.805,5.077,48.956,5.077,48.956H886.525L960.868,55.37Z" transform="translate(236.419 164.712)"/><path class="h" d="M118.238,74.34H943.06l20.717-18.93H109.4Z" transform="translate(233.479 164.797)"/><path class="i" d="M115.65,118.176s15.671-51.839,52.686-82.3h248.6s5.736,23.882,16.454,23.036l148.152.846S621.882,39.164,620.221,26h88.885l37.861,33.755h37.046l53.594,58.421Z" transform="translate(256.032 102.031)"/><circle class="j" cx="10.28" cy="10.28" r="10.28" transform="translate(371.682 248.007)"/><circle class="j" cx="10.28" cy="10.28" r="10.28" transform="translate(457.402 248.007)"/><circle class="j" cx="10.28" cy="10.28" r="10.28" transform="translate(550.079 248.007)"/><circle class="j" cx="10.28" cy="10.28" r="10.28" transform="translate(635.799 248.007)"/><circle class="j" cx="10.28" cy="10.28" r="10.28" transform="translate(727.38 248.007)"/><circle class="j" cx="10.28" cy="10.28" r="10.28" transform="translate(813.099 248.007)"/><circle class="j" cx="10.28" cy="10.28" r="10.28" transform="translate(905.777 248.007)"/><circle class="j" cx="10.28" cy="10.28" r="10.28" transform="translate(991.497 248.007)"/><circle class="j" cx="10.28" cy="10.28" r="10.28" transform="translate(1093.545 248.007)"/><path class="k" d="M121.392,77.322A105.842,105.842,0,0,1,90.05,81.9S94.563,67.2,121.392,77.322Z" transform="translate(201.397 203.97)"/><path class="f" d="M97,81.6s4.106-5.077,2.225-9.841c0,0,9.4,9.214,7.271,9.841a12.787,12.787,0,0,1-9.5,0Z" transform="translate(216.23 199.691)"/><path class="h" d="M211.78,35.873s2.288,22.911,13.383,26.609H377.578S419.262,39.1,415.188,26c0,0-.282,13.884-38.676,33.755L228.14,58.909S218.3,59.849,211.78,35.873Z" transform="translate(461.19 102.031)"/><path class="h" d="M320.02,36.77l1.348,1.536h37.109l-1.41-1.536Z" transform="translate(682.979 125.016)"/><path class="a" d="M-2.94,160.423S51.971,150.049,74.1,123.878c0,0,8.556,14.543,15.671,11.471,0,0,88.164,16.862,124.9,6.9,0,0,107.91,15.89,115.745,0,0,0,15.89,12.537,34.7,10.155,0,0,63.592,2.163,75.22-10.155,0,0,92.145,18.335,113.739,18.335,9.873,0,80.705-12.286,82.46-48.454,0,0,.846,37.924,24.133,33.16,0,0,128.063-3.542,133.453-18.805,0,0,8.055,30.84,19.683,28.458s43.878-2.476,45.7-18.429,33.128,12.537,33.128,18.429,65.379-2.476,60.9-18.429c0,0,36.7,21.939,56.415,17.238,0,0,61.21,1.975,63-9.4,0,0,23.632,20.5,32.188,16.266,0,0,46.1-21.438,49.645-31.342s36.482-6.08,36.482-6.08a48.642,48.642,0,0,0,25.606-21.939s18.492,0,26.547-8.87a47.013,47.013,0,0,1,20-12.38l1.912,9.4,12.349,75.22Z" transform="translate(2.94 217.277)"/></g></svg>