<svg id="b6cab50a-55a7-4dcf-8d44-9d5a3115c804" data-name="Layer 1" xmlns="http://www.w3.org/2000/svg" xmlns:xlink="http://www.w3.org/1999/xlink" viewBox="0 0 612 792"><defs><style>.eeca8854-0e13-4420-bcf5-9bcaff0cba6e{fill:none;}.bf4c88cd-62b1-43ae-b1b1-0e049bcc40e4{fill:#c0cdcd;}.ef680ce2-7b7d-49b1-9538-6bdb73b61926{fill:url(#b94860a2-ed8c-4647-afeb-826dc3d7db17);}</style><pattern id="b94860a2-ed8c-4647-afeb-826dc3d7db17" data-name="New Pattern 5" width="97.5" height="84" patternUnits="userSpaceOnUse" viewBox="0 0 97.5 84"><rect class="eeca8854-0e13-4420-bcf5-9bcaff0cba6e" width="97.5" height="84"/><path class="bf4c88cd-62b1-43ae-b1b1-0e049bcc40e4" d="M102.48,83.43H94.24v2.91H99v40.24a45.78,45.78,0,0,0,8.12.87c8.62,0,14.51-4.1,14.51-12.65,0-7.81-5-12.28-14.07-12.28h-5.09Zm5.21,22c7,0,10.35,3.22,10.35,9.11s-3.72,10-10.72,10a23.81,23.81,0,0,1-4.84-.49v-18.6Z"/><path class="bf4c88cd-62b1-43ae-b1b1-0e049bcc40e4" d="M92.52,126.57h8.24v-2.91H96V83.42a45.78,45.78,0,0,0-8.12-.87c-8.62,0-14.51,4.1-14.51,12.65,0,7.81,5,12.28,14.07,12.28h5.09Zm-5.21-22c-7,0-10.35-3.22-10.35-9.11s3.72-10,10.72-10a23.81,23.81,0,0,1,4.84.49v18.6Z"/><path class="bf4c88cd-62b1-43ae-b1b1-0e049bcc40e4" d="M5,83.43H-3.26v2.91H1.51v40.24a45.78,45.78,0,0,0,8.12.87c8.62,0,14.51-4.1,14.51-12.65,0-7.81-5-12.28-14.07-12.28H5Zm5.21,22c7,0,10.35,3.22,10.35,9.11s-3.72,10-10.72,10A23.81,23.81,0,0,1,5,124v-18.6Z"/><path class="bf4c88cd-62b1-43ae-b1b1-0e049bcc40e4" d="M-5,126.57H3.26v-2.91H-1.51V83.42a45.78,45.78,0,0,0-8.12-.87c-8.62,0-14.51,4.1-14.51,12.65,0,7.81,5,12.28,14.07,12.28H-5Zm-5.21-22c-7,0-10.35-3.22-10.35-9.11s3.72-10,10.72-10A23.81,23.81,0,0,1-5,86v18.6Z"/><path class="bf4c88cd-62b1-43ae-b1b1-0e049bcc40e4" d="M102.48,41.43H94.24v2.91H99V84.58a45.78,45.78,0,0,0,8.12.87c8.62,0,14.51-4.1,14.51-12.65,0-7.81-5-12.28-14.07-12.28h-5.09Zm5.21,22c7,0,10.35,3.22,10.35,9.11s-3.72,10-10.72,10a23.81,23.81,0,0,1-4.84-.49V63.44Z"/><path class="bf4c88cd-62b1-43ae-b1b1-0e049bcc40e4" d="M92.52,84.57h8.24V81.66H96V41.42a45.78,45.78,0,0,0-8.12-.87c-8.62,0-14.51,4.1-14.51,12.65,0,7.81,5,12.28,14.07,12.28h5.09Zm-5.21-22c-7,0-10.35-3.22-10.35-9.11s3.72-10,10.72-10a23.81,23.81,0,0,1,4.84.49v18.6Z"/><path class="bf4c88cd-62b1-43ae-b1b1-0e049bcc40e4" d="M53.73,62.43H45.49v2.91h4.77v40.24a45.78,45.78,0,0,0,8.12.87c8.62,0,14.51-4.1,14.51-12.65,0-7.81-5-12.28-14.07-12.28H53.73Zm5.21,22c7,0,10.35,3.22,10.35,9.11s-3.72,10-10.72,10a23.81,23.81,0,0,1-4.84-.49V84.44Z"/><path class="bf4c88cd-62b1-43ae-b1b1-0e049bcc40e4" d="M43.77,105.57H52v-2.91H47.24V62.42a45.78,45.78,0,0,0-8.12-.87c-8.62,0-14.51,4.1-14.51,12.65,0,7.81,5,12.28,14.07,12.28h5.09Zm-5.21-22c-7,0-10.35-3.22-10.35-9.11s3.72-10,10.72-10a23.81,23.81,0,0,1,4.84.49v18.6Z"/><path class="bf4c88cd-62b1-43ae-b1b1-0e049bcc40e4" d="M5,41.43H-3.26v2.91H1.51V84.58a45.78,45.78,0,0,0,8.12.87c8.62,0,14.51-4.1,14.51-12.65,0-7.81-5-12.28-14.07-12.28H5Zm5.21,22c7,0,10.35,3.22,10.35,9.11s-3.72,10-10.72,10A23.81,23.81,0,0,1,5,82V63.44Z"/><path class="bf4c88cd-62b1-43ae-b1b1-0e049bcc40e4" d="M-5,84.57H3.26V81.66H-1.51V41.42a45.78,45.78,0,0,0-8.12-.87c-8.62,0-14.51,4.1-14.51,12.65,0,7.81,5,12.28,14.07,12.28H-5Zm-5.21-22c-7,0-10.35-3.22-10.35-9.11s3.72-10,10.72-10A23.81,23.81,0,0,1-5,44v18.6Z"/><path class="bf4c88cd-62b1-43ae-b1b1-0e049bcc40e4" d="M102.48-.57H94.24V2.34H99V42.58a45.78,45.78,0,0,0,8.12.87c8.62,0,14.51-4.1,14.51-12.65,0-7.81-5-12.28-14.07-12.28h-5.09Zm5.21,22c7,0,10.35,3.22,10.35,9.11s-3.72,10-10.72,10a23.81,23.81,0,0,1-4.84-.49V21.44Z"/><path class="bf4c88cd-62b1-43ae-b1b1-0e049bcc40e4" d="M92.52,42.57h8.24V39.66H96V-.58a45.78,45.78,0,0,0-8.12-.87c-8.62,0-14.51,4.1-14.51,12.65,0,7.81,5,12.28,14.07,12.28h5.09Zm-5.21-22c-7,0-10.35-3.22-10.35-9.11s3.72-10,10.72-10A23.81,23.81,0,0,1,92.52,2v18.6Z"/><path class="bf4c88cd-62b1-43ae-b1b1-0e049bcc40e4" d="M53.73,20.43H45.49v2.91h4.77V63.58a45.78,45.78,0,0,0,8.12.87c8.62,0,14.51-4.1,14.51-12.65,0-7.81-5-12.28-14.07-12.28H53.73Zm5.21,22c7,0,10.35,3.22,10.35,9.11s-3.72,10-10.72,10A23.81,23.81,0,0,1,53.73,61V42.44Z"/><path class="bf4c88cd-62b1-43ae-b1b1-0e049bcc40e4" d="M43.77,63.57H52V60.66H47.24V20.42a45.78,45.78,0,0,0-8.12-.87c-8.62,0-14.51,4.1-14.51,12.65,0,7.81,5,12.28,14.07,12.28h5.09Zm-5.21-22c-7,0-10.35-3.22-10.35-9.11s3.72-10,10.72-10a23.81,23.81,0,0,1,4.84.49v18.6Z"/><path class="bf4c88cd-62b1-43ae-b1b1-0e049bcc40e4" d="M5-.57H-3.26V2.34H1.51V42.58a45.78,45.78,0,0,0,8.12.87c8.62,0,14.51-4.1,14.51-12.65,0-7.81-5-12.28-14.07-12.28H5Zm5.21,22c7,0,10.35,3.22,10.35,9.11s-3.72,10-10.72,10A23.81,23.81,0,0,1,5,40V21.44Z"/><path class="bf4c88cd-62b1-43ae-b1b1-0e049bcc40e4" d="M-5,42.57H3.26V39.66H-1.51V-.58a45.78,45.78,0,0,0-8.12-.87c-8.62,0-14.51,4.1-14.51,12.65,0,7.81,5,12.28,14.07,12.28H-5Zm-5.21-22c-7,0-10.35-3.22-10.35-9.11s3.72-10,10.72-10A23.81,23.81,0,0,1-5,2v18.6Z"/><path class="bf4c88cd-62b1-43ae-b1b1-0e049bcc40e4" d="M102.48-42.57H94.24v2.91H99V.58a45.78,45.78,0,0,0,8.12.87c8.62,0,14.51-4.1,14.51-12.65,0-7.81-5-12.28-14.07-12.28h-5.09Zm5.21,22c7,0,10.35,3.22,10.35,9.11s-3.72,10-10.72,10A23.81,23.81,0,0,1,102.48-2v-18.6Z"/><path class="bf4c88cd-62b1-43ae-b1b1-0e049bcc40e4" d="M92.52.57h8.24V-2.34H96V-42.58a45.78,45.78,0,0,0-8.12-.87c-8.62,0-14.51,4.1-14.51,12.65,0,7.81,5,12.28,14.07,12.28h5.09Zm-5.21-22c-7,0-10.35-3.22-10.35-9.11s3.72-10,10.72-10a23.81,23.81,0,0,1,4.84.49v18.6Z"/><path class="bf4c88cd-62b1-43ae-b1b1-0e049bcc40e4" d="M53.73-21.57H45.49v2.91h4.77V21.58a45.78,45.78,0,0,0,8.12.87c8.62,0,14.51-4.1,14.51-12.65,0-7.81-5-12.28-14.07-12.28H53.73Zm5.21,22c7,0,10.35,3.22,10.35,9.11s-3.72,10-10.72,10A23.81,23.81,0,0,1,53.73,19V.44Z"/><path class="bf4c88cd-62b1-43ae-b1b1-0e049bcc40e4" d="M43.77,21.57H52V18.66H47.24V-21.58a45.78,45.78,0,0,0-8.12-.87c-8.62,0-14.51,4.1-14.51,12.65,0,7.81,5,12.28,14.07,12.28h5.09Zm-5.21-22c-7,0-10.35-3.22-10.35-9.11s3.72-10,10.72-10a23.81,23.81,0,0,1,4.84.49V-.44Z"/><path class="bf4c88cd-62b1-43ae-b1b1-0e049bcc40e4" d="M5-42.57H-3.26v2.91H1.51V.58a45.78,45.78,0,0,0,8.12.87c8.62,0,14.51-4.1,14.51-12.65,0-7.81-5-12.28-14.07-12.28H5Zm5.21,22c7,0,10.35,3.22,10.35,9.11s-3.72,10-10.72,10A23.81,23.81,0,0,1,5-2v-18.6Z"/><path class="bf4c88cd-62b1-43ae-b1b1-0e049bcc40e4" d="M-5,.57H3.26V-2.34H-1.51V-42.58a45.78,45.78,0,0,0-8.12-.87c-8.62,0-14.51,4.1-14.51,12.65,0,7.81,5,12.28,14.07,12.28H-5Zm-5.21-22c-7,0-10.35-3.22-10.35-9.11s3.72-10,10.72-10A23.81,23.81,0,0,1-5-40v18.6Z"/></pattern></defs><title>pattern</title><rect class="ef680ce2-7b7d-49b1-9538-6bdb73b61926" width="612" height="792"/></svg>