<svg id="Layer_2" data-name="Layer 2" xmlns="http://www.w3.org/2000/svg" xmlns:xlink="http://www.w3.org/1999/xlink" viewBox="0 0 1921 1504.63"><defs><style>.cls-1{fill:none;}.cls-2{fill:#3b5b5c;}.cls-3{fill:#424f50;}.cls-4{fill:#223331;}.cls-5{fill:#486d6d;}.cls-6{fill:#304849;}.cls-7{fill:url(#New_Pattern_2);}.cls-8{fill:#172323;}.cls-9{fill:url(#New_Pattern_4);}.cls-10,.cls-11{fill:#0d1111;}.cls-10{stroke:#304849;stroke-miterlimit:10;}.cls-12{fill:url(#New_Pattern_5);}</style><pattern id="New_Pattern_2" data-name="New Pattern 2" width="218" height="120" patternUnits="userSpaceOnUse" viewBox="0 0 218 120"><rect class="cls-1" width="218" height="120"/><path class="cls-2" d="M196.52,95.4l21,.17,0,3.28c-12.58.21-21.64,8.51-21.74,21-.1,12.77,9.2,21.27,22.16,21.37s22.38-8.25,22.48-21c.09-12.09-8.21-20.34-20-21.3l0-3.35,19.59.15,0-3.47-43.4-.34Zm21.65,7c11.22.09,19.29,7.22,19.2,17.76s-8.26,17.61-19.48,17.52-19.35-7.22-19.26-17.82S207,102.37,218.17,102.45Z"/><path class="cls-2" d="M219,73.55h-1.53v15.5c-12-.31-18.53-7.56-18.53-17.36A18.89,18.89,0,0,1,202.7,60l-2.3-1.73a21.47,21.47,0,0,0-4.52,13.64c0,12,8.31,20.77,22.25,20.77S240.52,84,240.52,71.81A20.37,20.37,0,0,0,236,58.67l-2.29,1.74a18.27,18.27,0,0,1,3.78,11.22c0,9.48-6.14,16.49-17.18,17.3V73.55H219"/><path class="cls-2" d="M204.1,103.21l-7.59-7.59,9.24-9.24-2.14-2.14-9.24,9.24-4.62-4.62L199,79.62l-2.09-2.09-8.54,8.53-8.73-25.7-3.07,3.06L185,87,161.4,78.58l-3,3,25.75,8.68-8.43,8.44,2.09,2.09L187,91.57l4.62,4.62-9.24,9.24,2.14,2.14,9.24-9.24,7.59,7.59Z"/><path class="cls-2" d="M239.47,144.6l-21-.17,0-3.28c12.59-.21,21.64-8.51,21.74-21,.1-12.77-9.2-21.27-22.15-21.37s-22.39,8.25-22.49,21c-.09,12.08,8.21,20.33,20.05,21.29l0,3.35-19.59-.15,0,3.47,43.4.34Zm-21.65-7c-11.22-.09-19.28-7.22-19.2-17.76s8.26-17.61,19.48-17.52,19.35,7.22,19.27,17.82S229,137.63,217.82,137.55Z"/><path class="cls-2" d="M242.6,98.62l-.17,20.95-3.28,0c-.21-12.59-8.51-21.64-21-21.74-12.77-.1-21.27,9.19-21.37,22.15s8.25,22.38,21,22.48c12.08.1,20.33-8.21,21.29-20l3.35,0L242.26,142l3.47,0,.34-43.39Zm-7,21.64c-.09,11.22-7.22,19.29-17.76,19.21s-17.61-8.26-17.52-19.48,7.22-19.35,17.82-19.27S235.63,109,235.55,120.26Z"/><path class="cls-2" d="M193.4,141.56l.17-21,3.28,0c.21,12.59,8.51,21.65,21,21.74,12.77.1,21.27-9.19,21.37-22.15s-8.25-22.38-21-22.48c-12.08-.1-20.33,8.21-21.29,20l-3.35,0,.15-19.59-3.47,0-.34,43.4Zm7-21.64c.09-11.22,7.22-19.29,17.76-19.21s17.61,8.26,17.52,19.48-7.22,19.35-17.82,19.27S200.37,131.14,200.45,119.92Z"/><path class="cls-2" d="M171.55,119.11v1.52h15.5c-.31,12-7.56,18.54-17.36,18.54A18.89,18.89,0,0,1,158,135.39l-1.73,2.29a21.42,21.42,0,0,0,13.64,4.53c12,0,20.77-8.31,20.77-22.26S182,97.57,169.81,97.57a20.32,20.32,0,0,0-13.14,4.53l1.74,2.29a18.27,18.27,0,0,1,11.22-3.78c9.48,0,16.49,6.14,17.3,17.17H171.55v1.33"/><path class="cls-2" d="M110,133.55h-1.53v15.5c-12-.31-18.53-7.56-18.53-17.36A18.89,18.89,0,0,1,93.7,120l-2.3-1.73a21.47,21.47,0,0,0-4.52,13.64c0,12,8.31,20.77,22.25,20.77s22.39-8.68,22.39-20.84A20.37,20.37,0,0,0,127,118.67l-2.29,1.74a18.27,18.27,0,0,1,3.78,11.22c0,9.48-6.14,16.49-17.18,17.3V133.55H110"/><path class="cls-2" d="M-21.48,95.4l21,.17,0,3.28c-12.58.21-21.64,8.51-21.74,21-.1,12.77,9.2,21.27,22.16,21.37s22.38-8.25,22.48-21c.09-12.09-8.21-20.34-20-21.3l0-3.35,19.59.15,0-3.47-43.4-.34Zm21.65,7c11.22.09,19.29,7.22,19.2,17.76S11.11,137.82-.11,137.73s-19.35-7.22-19.26-17.82S-11,102.37.17,102.45Z"/><path class="cls-2" d="M1,73.55H-.55v15.5c-12-.31-18.53-7.56-18.53-17.36A18.89,18.89,0,0,1-15.3,60l-2.3-1.73a21.47,21.47,0,0,0-4.52,13.64c0,12,8.31,20.77,22.25,20.77S22.52,84,22.52,71.81A20.37,20.37,0,0,0,18,58.67L15.7,60.41a18.27,18.27,0,0,1,3.78,11.22c0,9.48-6.14,16.49-17.18,17.3V73.55H1"/><path class="cls-2" d="M21.47,144.6l-21-.17,0-3.28c12.59-.21,21.64-8.51,21.74-21,.1-12.77-9.2-21.27-22.15-21.37s-22.39,8.25-22.49,21c-.09,12.08,8.21,20.33,20.05,21.29l0,3.35-19.59-.15,0,3.47,43.4.34Zm-21.65-7c-11.22-.09-19.28-7.22-19.2-17.76S-11.12,102.18.1,102.27s19.35,7.22,19.27,17.82S11,137.63-.18,137.55Z"/><path class="cls-2" d="M24.6,98.62l-.17,20.95-3.28,0C20.94,107,12.64,97.91.11,97.81-12.66,97.71-21.16,107-21.26,120s8.25,22.38,21,22.48c12.08.1,20.33-8.21,21.29-20l3.35,0L24.26,142l3.47,0,.34-43.39Zm-7,21.64c-.09,11.22-7.22,19.29-17.76,19.21S-17.82,131.21-17.73,120s7.22-19.35,17.82-19.27S17.63,109,17.55,120.26Z"/><path class="cls-2" d="M46.45,121.08v-1.53H31c.31-12,7.56-18.54,17.36-18.54A18.89,18.89,0,0,1,60,104.79l1.73-2.29A21.48,21.48,0,0,0,48.12,98c-12,0-20.77,8.31-20.77,22.26S36,142.61,48.19,142.61a20.36,20.36,0,0,0,13.14-4.52l-1.74-2.3a18.21,18.21,0,0,1-11.22,3.78c-9.48,0-16.49-6.13-17.3-17.17H46.45v-1.32"/><path class="cls-2" d="M16.79,106.2l7.59-7.59,9.24,9.24,2.14-2.14-9.24-9.24,4.62-4.62,9.24,9.24L42.47,99l-8.53-8.53,25.7-8.74-3.06-3.06L33,87.13l8.38-23.64-3-3L29.77,86.29l-8.44-8.44L19.24,80l9.19,9.18-4.62,4.63-9.24-9.24-2.14,2.14,9.24,9.24-7.59,7.59Z"/><path class="cls-2" d="M-24.6,141.56l.17-21,3.28,0c.21,12.59,8.51,21.65,21,21.74,12.77.1,21.27-9.19,21.37-22.15S13,97.84.23,97.74c-12.08-.1-20.33,8.21-21.29,20l-3.35,0,.15-19.59-3.47,0-.34,43.4Zm7.05-21.64c.09-11.22,7.22-19.29,17.76-19.21S17.82,109,17.73,120.19,10.51,139.54-.09,139.46-17.63,131.14-17.55,119.92Z"/><path class="cls-2" d="M196.52-24.6l21,.17,0,3.28c-12.58.21-21.64,8.51-21.74,21-.1,12.77,9.2,21.27,22.16,21.37S240.25,13,240.35.24c.09-12.09-8.21-20.34-20-21.3l0-3.35,19.59.15,0-3.47-43.4-.34Zm21.65,7.05c11.22.09,19.29,7.22,19.2,17.76s-8.26,17.61-19.48,17.52S198.54,10.51,198.63-.09,207-17.63,218.17-17.55Z"/><path class="cls-2" d="M239.47,24.6l-21-.17,0-3.28c12.59-.21,21.64-8.51,21.74-21,.1-12.77-9.2-21.27-22.15-21.37S195.74-13,195.64-.23c-.09,12.08,8.21,20.33,20.05,21.29l0,3.35-19.59-.15,0,3.47,43.4.34Zm-21.65-7c-11.22-.09-19.28-7.22-19.2-17.76s8.26-17.61,19.48-17.52S237.45-10.51,237.37.09,229,17.63,217.82,17.55Z"/><path class="cls-2" d="M217,46.45h1.53V31c12,.31,18.54,7.56,18.54,17.36A18.89,18.89,0,0,1,233.29,60l2.3,1.73a21.47,21.47,0,0,0,4.52-13.64c0-12-8.3-20.76-22.25-20.76S195.48,36,195.48,48.19A20.36,20.36,0,0,0,200,61.33l2.3-1.74a18.22,18.22,0,0,1-3.79-11.22c0-9.48,6.14-16.49,17.18-17.3V46.45H217"/><path class="cls-2" d="M242.6-21.38l-.17,21-3.28,0c-.21-12.59-8.51-21.64-21-21.74C205.34-22.29,196.84-13,196.74,0s8.25,22.38,21,22.48c12.08.1,20.33-8.21,21.29-20l3.35,0L242.26,22l3.47,0,.34-43.39Zm-7,21.64c-.09,11.22-7.22,19.29-17.76,19.21S200.18,11.21,200.27,0s7.22-19.35,17.82-19.27S235.63-11,235.55.26Z"/><path class="cls-2" d="M193.4,21.56,193.57.61l3.28,0c.21,12.59,8.51,21.65,21,21.74,12.77.1,21.27-9.19,21.37-22.15s-8.25-22.38-21-22.48c-12.08-.1-20.33,8.21-21.29,20l-3.35,0,.15-19.59-3.47,0-.34,43.4Zm7-21.64c.09-11.22,7.22-19.29,17.76-19.21S235.82-11,235.73.19s-7.22,19.35-17.82,19.27S200.37,11.14,200.45-.08Z"/><path class="cls-2" d="M171.55-.89V.63h15.5c-.31,12-7.56,18.54-17.36,18.54A18.89,18.89,0,0,1,158,15.39l-1.73,2.29a21.42,21.42,0,0,0,13.64,4.53c12,0,20.77-8.31,20.77-22.26S182-22.43,169.81-22.43a20.32,20.32,0,0,0-13.14,4.53l1.74,2.29a18.27,18.27,0,0,1,11.22-3.78c9.48,0,16.49,6.14,17.3,17.17H171.55V-.89"/><path class="cls-2" d="M201.21,14l-7.59,7.59-9.24-9.23-2.14,2.14,9.24,9.23-4.62,4.63-9.24-9.24-2.09,2.09,8.53,8.54-25.7,8.73,3.06,3.06L185,33.05l-8.38,23.64,3,3,8.69-25.76,8.44,8.44,2.09-2.09-9.19-9.19,4.62-4.62,9.24,9.24,2.14-2.14-9.24-9.24,7.59-7.59Z"/><path class="cls-2" d="M87.52,35.4l21,.17,0,3.28c-12.58.21-21.64,8.51-21.74,21-.1,12.77,9.2,21.27,22.16,21.37s22.38-8.25,22.48-21c.09-12.09-8.21-20.34-20-21.3l0-3.35,19.59.15,0-3.47-43.4-.34Zm21.65,7.05c11.22.09,19.29,7.22,19.2,17.76s-8.26,17.61-19.48,17.52S89.54,70.51,89.63,59.91,98,42.37,109.17,42.45Z"/><path class="cls-2" d="M110,13.55h-1.53v15.5c-12-.31-18.53-7.56-18.53-17.36A18.89,18.89,0,0,1,93.7,0L91.4-1.76a21.47,21.47,0,0,0-4.52,13.64c0,12,8.31,20.77,22.25,20.77S131.52,24,131.52,11.81A20.37,20.37,0,0,0,127-1.33L124.7.41a18.27,18.27,0,0,1,3.78,11.22c0,9.48-6.14,16.49-17.18,17.3V13.55H110"/><path class="cls-2" d="M95.1,43.21l-7.59-7.59,9.24-9.24-2.14-2.14-9.24,9.24-4.62-4.62L90,19.62,87.9,17.53l-8.54,8.53L70.63.36,67.56,3.42,76,27,52.4,18.58l-3,3,25.75,8.68-8.43,8.44,2.09,2.09L78,31.57l4.62,4.62-9.24,9.24,2.14,2.14,9.24-9.24,7.59,7.59Z"/><path class="cls-2" d="M130.47,84.6l-21-.17,0-3.28c12.59-.21,21.64-8.51,21.74-21,.1-12.77-9.2-21.27-22.15-21.37S86.74,47,86.64,59.77c-.09,12.08,8.21,20.33,20,21.29l0,3.35-19.59-.15,0,3.47,43.4.34Zm-21.65-7c-11.22-.09-19.28-7.22-19.2-17.76s8.26-17.61,19.48-17.52,19.35,7.22,19.27,17.82S120,77.63,108.82,77.55Z"/><path class="cls-2" d="M108,106.45h1.53V91c12,.31,18.54,7.56,18.54,17.36A18.89,18.89,0,0,1,124.29,120l2.3,1.73a21.47,21.47,0,0,0,4.52-13.64c0-12-8.3-20.76-22.25-20.76S86.48,96,86.48,108.19A20.36,20.36,0,0,0,91,121.33l2.3-1.74a18.22,18.22,0,0,1-3.79-11.22c0-9.48,6.14-16.49,17.18-17.3v15.38H108"/><path class="cls-2" d="M122.89,76.79l7.59,7.59-9.24,9.24,2.14,2.14,9.24-9.24,4.62,4.62L128,100.38l2.09,2.09,8.54-8.53,8.74,25.7,3.06-3.06L142,93.05l23.63,8.37,3-3L142.8,89.77l8.43-8.44-2.09-2.09L140,88.43l-4.62-4.62,9.24-9.24-2.14-2.14-9.24,9.24-7.59-7.59Z"/><path class="cls-2" d="M133.6,38.62l-.17,21-3.28,0c-.21-12.59-8.51-21.64-21-21.74C96.34,37.71,87.84,47,87.74,60s8.25,22.38,21,22.48c12.08.1,20.33-8.21,21.29-20l3.35,0L133.26,82l3.47,0,.34-43.39Zm-7,21.64c-.09,11.22-7.22,19.29-17.76,19.21S91.18,71.21,91.27,60s7.22-19.35,17.82-19.27S126.63,49,126.55,60.26Z"/><path class="cls-2" d="M155.45,61.08V59.55H140c.31-12,7.56-18.54,17.36-18.54A18.89,18.89,0,0,1,169,44.79l1.73-2.29A21.48,21.48,0,0,0,157.12,38c-12,0-20.77,8.31-20.77,22.26S145,82.61,157.19,82.61a20.36,20.36,0,0,0,13.14-4.52l-1.74-2.3a18.21,18.21,0,0,1-11.22,3.78c-9.48,0-16.49-6.13-17.3-17.17h15.38V61.08"/><path class="cls-2" d="M125.79,46.2l7.59-7.59,9.24,9.24,2.14-2.14-9.24-9.24,4.62-4.62,9.24,9.24,2.09-2.1-8.53-8.53,25.7-8.74-3.06-3.06L142,27.13l8.38-23.64-3-3-8.69,25.76-8.44-8.44L128.24,20l9.19,9.18-4.62,4.63-9.24-9.24-2.14,2.14,9.24,9.24-7.59,7.59Z"/><path class="cls-2" d="M84.4,81.56l.17-21,3.28,0c.21,12.59,8.51,21.65,21,21.74,12.77.1,21.27-9.19,21.37-22.15s-8.25-22.38-21-22.48c-12.08-.1-20.33,8.21-21.29,20l-3.35,0,.15-19.59-3.47,0-.34,43.4Zm7-21.64c.09-11.22,7.22-19.29,17.76-19.21S126.82,49,126.73,60.19s-7.22,19.35-17.82,19.27S91.37,71.14,91.45,59.92Z"/><path class="cls-2" d="M62.55,59.11v1.52h15.5c-.31,12-7.56,18.54-17.36,18.54A18.89,18.89,0,0,1,49,75.39l-1.73,2.29a21.42,21.42,0,0,0,13.64,4.53c12,0,20.77-8.31,20.77-22.26S73,37.57,60.81,37.57A20.32,20.32,0,0,0,47.67,42.1l1.74,2.29a18.27,18.27,0,0,1,11.22-3.78c9.48,0,16.49,6.14,17.3,17.17H62.55v1.33"/><path class="cls-2" d="M92.21,74l-7.59,7.59-9.24-9.23-2.14,2.14,9.24,9.23-4.62,4.63L68.62,79.1l-2.09,2.09,8.53,8.54-25.7,8.73,3.06,3.06L76,93.05l-8.38,23.64,3,3,8.69-25.76,8.44,8.44,2.09-2.09-9.19-9.19,4.62-4.62,9.24,9.24,2.14-2.14-9.24-9.24,7.59-7.59Z"/><path class="cls-2" d="M-21.48-24.6l21,.17,0,3.28c-12.58.21-21.64,8.51-21.74,21-.1,12.77,9.2,21.27,22.16,21.37S22.25,13,22.35.24c.09-12.09-8.21-20.34-20-21.3l0-3.35,19.59.15,0-3.47-43.4-.34ZM.17-17.55c11.22.09,19.29,7.22,19.2,17.76S11.11,17.82-.11,17.73-19.46,10.51-19.37-.09-11-17.63.17-17.55Z"/><path class="cls-2" d="M21.47,24.6l-21-.17,0-3.28c12.59-.21,21.64-8.51,21.74-21,.1-12.77-9.2-21.27-22.15-21.37S-22.26-13-22.36-.23c-.09,12.08,8.21,20.33,20.05,21.29l0,3.35-19.59-.15,0,3.47,43.4.34Zm-21.65-7c-11.22-.09-19.28-7.22-19.2-17.76S-11.12-17.82.1-17.73,19.45-10.51,19.37.09,11,17.63-.18,17.55Z"/><path class="cls-2" d="M-1,46.45H.54V31c12,.31,18.54,7.56,18.54,17.36A18.89,18.89,0,0,1,15.29,60l2.3,1.73a21.47,21.47,0,0,0,4.52-13.64c0-12-8.3-20.76-22.25-20.76S-22.52,36-22.52,48.19A20.36,20.36,0,0,0-18,61.33l2.3-1.74a18.22,18.22,0,0,1-3.79-11.22c0-9.48,6.14-16.49,17.18-17.3V46.45H-1"/><path class="cls-2" d="M13.89,16.79l7.59,7.59-9.24,9.24,2.14,2.14,9.24-9.24,4.62,4.62L19,40.38l2.09,2.09,8.54-8.53,8.74,25.7,3.06-3.06L33,33.05l23.63,8.37,3-3L33.8,29.77l8.43-8.44-2.09-2.09L31,28.43l-4.62-4.62,9.24-9.24-2.14-2.14-9.24,9.24L16.6,14.08Z"/><path class="cls-2" d="M24.6-21.38l-.17,21-3.28,0C20.94-13,12.64-22.09.11-22.19-12.66-22.29-21.16-13-21.26,0S-13,22.34-.23,22.44c12.08.1,20.33-8.21,21.29-20l3.35,0L24.26,22l3.47,0,.34-43.39ZM17.55.26C17.46,11.48,10.33,19.55-.21,19.47S-17.82,11.21-17.73,0-10.51-19.36.09-19.28,17.63-11,17.55.26Z"/><path class="cls-2" d="M46.45,1.08V-.45H31C31.26-12.42,38.51-19,48.31-19A18.89,18.89,0,0,1,60-15.21l1.73-2.29A21.48,21.48,0,0,0,48.12-22C36.1-22,27.35-13.72,27.35.23S36,22.61,48.19,22.61a20.36,20.36,0,0,0,13.14-4.52l-1.74-2.3a18.21,18.21,0,0,1-11.22,3.78c-9.48,0-16.49-6.13-17.3-17.17H46.45V1.08"/><path class="cls-2" d="M-24.6,21.56-24.43.61l3.28,0c.21,12.59,8.51,21.65,21,21.74,12.77.1,21.27-9.19,21.37-22.15S13-22.16.23-22.26c-12.08-.1-20.33,8.21-21.29,20l-3.35,0,.15-19.59-3.47,0-.34,43.4ZM-17.55-.08C-17.46-11.3-10.33-19.37.21-19.29S17.82-11,17.73.19,10.51,19.54-.09,19.46-17.63,11.14-17.55-.08Z"/><path class="cls-2" d="M108-13.55h1.53V-29c12,.31,18.54,7.56,18.54,17.36A18.89,18.89,0,0,1,124.29,0l2.3,1.73a21.47,21.47,0,0,0,4.52-13.64c0-12-8.3-20.76-22.25-20.76S86.48-24,86.48-11.81A20.36,20.36,0,0,0,91,1.33L93.3-.41a18.22,18.22,0,0,1-3.79-11.22c0-9.48,6.14-16.49,17.18-17.3v15.38H108"/></pattern><pattern id="New_Pattern_4" data-name="New Pattern 4" width="75" height="90" patternUnits="userSpaceOnUse" viewBox="0 0 75 90"><rect class="cls-1" width="75" height="90"/><path class="cls-3" d="M92.33,93V86.28H88.11V45.8H84.64V86.28h-10V45.8H71.13V86.28h-10V45.8H57.67V89.19H88.86V93Z"/><path class="cls-3" d="M57.67,87v6.76h4.22V134.2h3.47V93.72h10V134.2h3.48V93.72h10V134.2h3.47V90.81H61.14V87Z"/><path class="cls-3" d="M17.33,93V86.28H13.11V45.8H9.64V86.28H-.4V45.8H-3.87V86.28h-10V45.8h-3.47V89.19H13.86V93Z"/><path class="cls-3" d="M-17.33,87v6.76h4.22V134.2h3.47V93.72H.4V134.2H3.88V93.72h10V134.2h3.47V90.81H-13.86V87Z"/><path class="cls-3" d="M92.33,3V-3.72H88.11V-44.2H84.64V-3.72h-10V-44.2H71.13V-3.72h-10V-44.2H57.67V-.81H88.86V3Z"/><path class="cls-3" d="M57.67-3V3.72h4.22V44.2h3.47V3.72h10V44.2h3.48V3.72h10V44.2h3.47V.81H61.14V-3Z"/><path class="cls-3" d="M54.83,48V41.28H50.61V.8H47.14V41.28h-10V.8H33.63V41.28h-10V.8H20.17V44.19H51.36V48Z"/><path class="cls-3" d="M20.17,42v6.76h4.22V89.2h3.47V48.72h10V89.2h3.48V48.72h10V89.2h3.47V45.81H23.64V42Z"/><path class="cls-3" d="M17.33,3V-3.72H13.11V-44.2H9.64V-3.72H-.4V-44.2H-3.87V-3.72h-10V-44.2h-3.47V-.81H13.86V3Z"/><path class="cls-3" d="M-17.33-3V3.72h4.22V44.2h3.47V3.72H.4V44.2H3.88V3.72h10V44.2h3.47V.81H-13.86V-3Z"/></pattern><pattern id="New_Pattern_5" data-name="New Pattern 5" width="97.5" height="84" patternUnits="userSpaceOnUse" viewBox="0 0 97.5 84"><rect class="cls-1" width="97.5" height="84"/><path class="cls-4" d="M102.48,83.43H94.24v2.91H99v40.24a45.78,45.78,0,0,0,8.12.87c8.62,0,14.51-4.1,14.51-12.65,0-7.81-5-12.28-14.07-12.28h-5.09Zm5.21,22c7,0,10.35,3.22,10.35,9.11s-3.72,10-10.72,10a23.81,23.81,0,0,1-4.84-.49v-18.6Z"/><path class="cls-4" d="M92.52,126.57h8.24v-2.91H96V83.42a45.78,45.78,0,0,0-8.12-.87c-8.62,0-14.51,4.1-14.51,12.65,0,7.81,5,12.28,14.07,12.28h5.09Zm-5.21-22c-7,0-10.35-3.22-10.35-9.11s3.72-10,10.72-10a23.81,23.81,0,0,1,4.84.49v18.6Z"/><path class="cls-4" d="M5,83.43H-3.26v2.91H1.51v40.24a45.78,45.78,0,0,0,8.12.87c8.62,0,14.51-4.1,14.51-12.65,0-7.81-5-12.28-14.07-12.28H5Zm5.21,22c7,0,10.35,3.22,10.35,9.11s-3.72,10-10.72,10A23.81,23.81,0,0,1,5,124v-18.6Z"/><path class="cls-4" d="M-5,126.57H3.26v-2.91H-1.51V83.42a45.78,45.78,0,0,0-8.12-.87c-8.62,0-14.51,4.1-14.51,12.65,0,7.81,5,12.28,14.07,12.28H-5Zm-5.21-22c-7,0-10.35-3.22-10.35-9.11s3.72-10,10.72-10A23.81,23.81,0,0,1-5,86v18.6Z"/><path class="cls-4" d="M102.48,41.43H94.24v2.91H99V84.58a45.78,45.78,0,0,0,8.12.87c8.62,0,14.51-4.1,14.51-12.65,0-7.81-5-12.28-14.07-12.28h-5.09Zm5.21,22c7,0,10.35,3.22,10.35,9.11s-3.72,10-10.72,10a23.81,23.81,0,0,1-4.84-.49V63.44Z"/><path class="cls-4" d="M92.52,84.57h8.24V81.66H96V41.42a45.78,45.78,0,0,0-8.12-.87c-8.62,0-14.51,4.1-14.51,12.65,0,7.81,5,12.28,14.07,12.28h5.09Zm-5.21-22c-7,0-10.35-3.22-10.35-9.11s3.72-10,10.72-10a23.81,23.81,0,0,1,4.84.49v18.6Z"/><path class="cls-4" d="M53.73,62.43H45.49v2.91h4.77v40.24a45.78,45.78,0,0,0,8.12.87c8.62,0,14.51-4.1,14.51-12.65,0-7.81-5-12.28-14.07-12.28H53.73Zm5.21,22c7,0,10.35,3.22,10.35,9.11s-3.72,10-10.72,10a23.81,23.81,0,0,1-4.84-.49V84.44Z"/><path class="cls-4" d="M43.77,105.57H52v-2.91H47.24V62.42a45.78,45.78,0,0,0-8.12-.87c-8.62,0-14.51,4.1-14.51,12.65,0,7.81,5,12.28,14.07,12.28h5.09Zm-5.21-22c-7,0-10.35-3.22-10.35-9.11s3.72-10,10.72-10a23.81,23.81,0,0,1,4.84.49v18.6Z"/><path class="cls-4" d="M5,41.43H-3.26v2.91H1.51V84.58a45.78,45.78,0,0,0,8.12.87c8.62,0,14.51-4.1,14.51-12.65,0-7.81-5-12.28-14.07-12.28H5Zm5.21,22c7,0,10.35,3.22,10.35,9.11s-3.72,10-10.72,10A23.81,23.81,0,0,1,5,82V63.44Z"/><path class="cls-4" d="M-5,84.57H3.26V81.66H-1.51V41.42a45.78,45.78,0,0,0-8.12-.87c-8.62,0-14.51,4.1-14.51,12.65,0,7.81,5,12.28,14.07,12.28H-5Zm-5.21-22c-7,0-10.35-3.22-10.35-9.11s3.72-10,10.72-10A23.81,23.81,0,0,1-5,44v18.6Z"/><path class="cls-4" d="M102.48-.57H94.24V2.34H99V42.58a45.78,45.78,0,0,0,8.12.87c8.62,0,14.51-4.1,14.51-12.65,0-7.81-5-12.28-14.07-12.28h-5.09Zm5.21,22c7,0,10.35,3.22,10.35,9.11s-3.72,10-10.72,10a23.81,23.81,0,0,1-4.84-.49V21.44Z"/><path class="cls-4" d="M92.52,42.57h8.24V39.66H96V-.58a45.78,45.78,0,0,0-8.12-.87c-8.62,0-14.51,4.1-14.51,12.65,0,7.81,5,12.28,14.07,12.28h5.09Zm-5.21-22c-7,0-10.35-3.22-10.35-9.11s3.72-10,10.72-10A23.81,23.81,0,0,1,92.52,2v18.6Z"/><path class="cls-4" d="M53.73,20.43H45.49v2.91h4.77V63.58a45.78,45.78,0,0,0,8.12.87c8.62,0,14.51-4.1,14.51-12.65,0-7.81-5-12.28-14.07-12.28H53.73Zm5.21,22c7,0,10.35,3.22,10.35,9.11s-3.72,10-10.72,10A23.81,23.81,0,0,1,53.73,61V42.44Z"/><path class="cls-4" d="M43.77,63.57H52V60.66H47.24V20.42a45.78,45.78,0,0,0-8.12-.87c-8.62,0-14.51,4.1-14.51,12.65,0,7.81,5,12.28,14.07,12.28h5.09Zm-5.21-22c-7,0-10.35-3.22-10.35-9.11s3.72-10,10.72-10a23.81,23.81,0,0,1,4.84.49v18.6Z"/><path class="cls-4" d="M5-.57H-3.26V2.34H1.51V42.58a45.78,45.78,0,0,0,8.12.87c8.62,0,14.51-4.1,14.51-12.65,0-7.81-5-12.28-14.07-12.28H5Zm5.21,22c7,0,10.35,3.22,10.35,9.11s-3.72,10-10.72,10A23.81,23.81,0,0,1,5,40V21.44Z"/><path class="cls-4" d="M-5,42.57H3.26V39.66H-1.51V-.58a45.78,45.78,0,0,0-8.12-.87c-8.62,0-14.51,4.1-14.51,12.65,0,7.81,5,12.28,14.07,12.28H-5Zm-5.21-22c-7,0-10.35-3.22-10.35-9.11s3.72-10,10.72-10A23.81,23.81,0,0,1-5,2v18.6Z"/><path class="cls-4" d="M102.48-42.57H94.24v2.91H99V.58a45.78,45.78,0,0,0,8.12.87c8.62,0,14.51-4.1,14.51-12.65,0-7.81-5-12.28-14.07-12.28h-5.09Zm5.21,22c7,0,10.35,3.22,10.35,9.11s-3.72,10-10.72,10A23.81,23.81,0,0,1,102.48-2v-18.6Z"/><path class="cls-4" d="M92.52.57h8.24V-2.34H96V-42.58a45.78,45.78,0,0,0-8.12-.87c-8.62,0-14.51,4.1-14.51,12.65,0,7.81,5,12.28,14.07,12.28h5.09Zm-5.21-22c-7,0-10.35-3.22-10.35-9.11s3.72-10,10.72-10a23.81,23.81,0,0,1,4.84.49v18.6Z"/><path class="cls-4" d="M53.73-21.57H45.49v2.91h4.77V21.58a45.78,45.78,0,0,0,8.12.87c8.62,0,14.51-4.1,14.51-12.65,0-7.81-5-12.28-14.07-12.28H53.73Zm5.21,22c7,0,10.35,3.22,10.35,9.11s-3.72,10-10.72,10A23.81,23.81,0,0,1,53.73,19V.44Z"/><path class="cls-4" d="M43.77,21.57H52V18.66H47.24V-21.58a45.78,45.78,0,0,0-8.12-.87c-8.62,0-14.51,4.1-14.51,12.65,0,7.81,5,12.28,14.07,12.28h5.09Zm-5.21-22c-7,0-10.35-3.22-10.35-9.11s3.72-10,10.72-10a23.81,23.81,0,0,1,4.84.49V-.44Z"/><path class="cls-4" d="M5-42.57H-3.26v2.91H1.51V.58a45.78,45.78,0,0,0,8.12.87c8.62,0,14.51-4.1,14.51-12.65,0-7.81-5-12.28-14.07-12.28H5Zm5.21,22c7,0,10.35,3.22,10.35,9.11s-3.72,10-10.72,10A23.81,23.81,0,0,1,5-2v-18.6Z"/><path class="cls-4" d="M-5,.57H3.26V-2.34H-1.51V-42.58a45.78,45.78,0,0,0-8.12-.87c-8.62,0-14.51,4.1-14.51,12.65,0,7.81,5,12.28,14.07,12.28H-5Zm-5.21-22c-7,0-10.35-3.22-10.35-9.11s3.72-10,10.72-10A23.81,23.81,0,0,1-5-40v18.6Z"/></pattern></defs><title>sec3image</title><path class="cls-5" d="M622.48,678.08l29.27-4.87,25.75,9.39,46-2.15,13.25-3.52,46,1,33.5,4.7s166.25-.39,193.25-11,59-3.91,59-3.91l34-2.07,42.5,6s27.25-.2,29.12-5.18l12.88-.8,7,2.17s15.88,1.07,25.38-3.43l11.12-1,10.25-4.3,36.87-2.19s63.14-27.06,72.45-23L1422,671.65,1316,1065s-915.5-17.2-912.5-17.2S491,741.25,491,741.25Z" transform="translate(0.5 -317.4)"/><path class="cls-6" d="M0,605S784,357,883.5,351c0,0,105.09-49.4,616.56-28.4L1920,343.67v160l-216.33,72s-280.67,162-404.67,114c0,0,80-115.38,48.67-181.69S776.33,419,621,571.67c0,0-118.67,102.66,14.67,137.33L637,720.33,0,769Z" transform="translate(0.5 -317.4)"/><path class="cls-7" d="M0,605S784,357,883.5,351c0,0,105.09-49.4,616.56-28.4L1920,343.67v160l-216.33,72s-280.67,162-404.67,114c0,0,80-115.38,48.67-181.69S776.33,419,621,571.67c0,0-118.67,102.66,14.67,137.33L637,720.33,0,769Z" transform="translate(0.5 -317.4)"/><path class="cls-8" d="M0,668s83.5,28.5,101.5,41.5c0,0,34.5-54.5,100-20.75,0,0,41.5-27.25,53-25.25s69-30,69-30,13.5,36,27,22.5c0,0,.5,7,33,4.5,0,0,6.17,12.5,16.17,4.83l30-7.33s4.83,6,10.58,3a33.26,33.26,0,0,1,11-3.5l3.75,1.75s33.75,1.25,40.5,17c0,0,55.25,24.75,66,20.25l8.25,15s7,4.25,19-3.25c0,0,29-2.5,33.5,8.75H634v3.56l34.25,23.94H715.5L722,756l10.25,3.25,3.25,11.5s-193-13.75-219,6.75S142,826,142,826L0,844.5V668Z" transform="translate(0.5 -317.4)"/><path class="cls-8" d="M1310.33,687.72l13.67-22,9.67,4.61,6.66-4.61,27.34,5S1390,658.65,1390,651.91l15.33-4.61,6-21.28s9-4.6,11,0,2,25.89,2,25.89,15,.35,15.67-3.19,5.33,11.7,5.33,11.7l30.58-7.32s9.7,3.64,11.06-3.74c0,0,23.78-7.78,32.09-33l15.75-1.8s-.06,7,5.13,6,15.94-13.43,15.94-13.43,2.5,9.71,6.37,8.78,18.56-9.78,18.56-9.78l5.75-12.36s-.64-13.17,4.19-18.75,26.08-13.83,26.08-13.83-.95,9,.84,9.89,19.14,3.54,31.45-6.7c0,0,11.57.27,14.38-.73s5.44-11.83,5.44-11.83l2.94-2,10.12,4.46a16.77,16.77,0,0,1,8.25-5.65c5.06-1.33,15.63-6.85,15.81-6.92s20.94,1.27,20.94,1.27l3.12,5.31,10.44-14L1920,467V963.75L1288,1043s-14.5-71.27,26-151.58-121.5-171.79-121.5-171.79,28-26.59,31-26.59,13.5-4.26,13.5-4.26l6-11.17,11.5,3.73,35-2.66,17.5-1.07Z" transform="translate(0.5 -317.4)"/><path class="cls-9" d="M0,668s83.5,28.5,101.5,41.5c0,0,34.5-54.5,100-20.75,0,0,41.5-27.25,53-25.25s69-30,69-30,13.5,36,27,22.5c0,0,.5,7,33,4.5,0,0,6.17,12.5,16.17,4.83l30-7.33s4.83,6,10.58,3a33.26,33.26,0,0,1,11-3.5l3.75,1.75s33.75,1.25,40.5,17c0,0,55.25,24.75,66,20.25l8.25,15s7,4.25,19-3.25c0,0,29-2.5,33.5,8.75H634v3.56l34.25,23.94H715.5L722,756l10.25,3.25,3.25,11.5s-193-13.75-219,6.75S142,826,142,826L0,844.5V668Z" transform="translate(0.5 -317.4)"/><path class="cls-9" d="M1310.33,687.72l13.67-22,9.67,4.61,6.66-4.61,27.34,5S1390,658.65,1390,651.91l15.33-4.61,6-21.28s9-4.6,11,0,2,25.89,2,25.89,15,.35,15.67-3.19,5.33,11.7,5.33,11.7l30.58-7.32s9.7,3.64,11.06-3.74c0,0,23.78-7.78,32.09-33l15.75-1.8s-.06,7,5.13,6,15.94-13.43,15.94-13.43,2.5,9.71,6.37,8.78,18.56-9.78,18.56-9.78l5.75-12.36s-.64-13.17,4.19-18.75,26.08-13.83,26.08-13.83-.95,9,.84,9.89,19.14,3.54,31.45-6.7c0,0,11.57.27,14.38-.73s5.44-11.83,5.44-11.83l2.94-2,10.12,4.46a16.77,16.77,0,0,1,8.25-5.65c5.06-1.33,15.63-6.85,15.81-6.92s20.94,1.27,20.94,1.27l3.12,5.31,10.44-14L1920,467V963.75L1288,1043s-14.5-71.27,26-151.58-121.5-171.79-121.5-171.79,28-26.59,31-26.59,13.5-4.26,13.5-4.26l6-11.17,11.5,3.73,35-2.66,17.5-1.07Z" transform="translate(0.5 -317.4)"/><path class="cls-10" d="M0,706.5H9.5l13.5-9L50,726l-3,9H65l13.5,6.5S91,799.5,142,826l72.5-79.5h16L239,735s13.92,20,38,15.5S293,739,293,739l20.47,6,16-8.55,28,2.5,34,16,15-12.5,8.5.5,7,7.5s70,32,82.5,18.5,30,9.5,30,9.5l-9,47.5-60,91L450,926l2.5,11.5L474,918l18.5,24-20,30.5,14-5,21-29,21-1,23,6,16.5-11,14.5-2.5,7.5,8,18-8.5L683,900l60,1.5,9,8,20-5V917l13.5,16.5L803,940h4.5v14.5l10.5,3-6,15,9.5,21,14.5-13,4.5,9.5,24,7.5,15-6,5-.5,7.5,6.5,21,7.5,14,14h27.33l3,5.67L1013,1023s-5,6,4.33,4,63.67-5.33,63.67-5.33V1037s42.33,9.67,108.33-60.33c0,0,121.67,54.58,149.42,50.83s71.25-16.25,71.25-16.25-6.5,5.25-3.5,7.5,44.25-11.75,49.75-9.25S1494,1004,1494,997.75s-8-12-8-12L1502.25,972l32-3L1566,953.25s-4.5,1,4.5,1.25a33.89,33.89,0,0,0,16.5-4.25L1613,936s-3-6.75,4.5-14.25l24.75-1.37s10.87-5.63,10.87-12.88,15.13-7.38,15.13-7.38,17.87-9.87,24.25-9.5,14.5-3.12,14.5-3.12l16-6.25s9.88.13,11.25,3.87S1737,863.5,1737,863.5s37.83-9.83,40-23.33-1.17-11-1.17-11l3.84-5.17s3-28.67-22.17-22.5-34.5-5.33-34.5-5.33l-2.83-6.17-.34-3.5-5.83-.94s-7.5,6.56-10.12,6.5-15.38.5-15.38.5-9.81-14.18-13.44-13.12-14.68,3.81-14.68,3.81l-5-7.31-6.82.31-2.18,1.19-6.94-19.94,5.87-8.44,1.94-11.25-7.5-8.19,7.75-4.74,20.06-3.94L1920,562v518H0Z" transform="translate(0.5 -317.4)"/><path class="cls-11" d="M0,1613H9.5l13.5,13,27-41.23-3-13H65l13.5-9.4S91,1478.52,142,1440.19l72.5,115h16l8.5,16.64s13.92-28.93,38-22.42S293,1566,293,1566l20.47-8.75,16,12.37,28-3.62,34-23.14,15,18.08,8.5-.72,7-10.85s70-46.29,82.5-26.76,30-13.74,30-13.74l-9-68.7-60-131.62-15.5-13,2.5-16.64,21.5,28.21,18.5-34.71-20-44.12,14,7.23,21,42,21,1.44,23-8.67,16.5,15.91,14.5,3.61,7.5-11.57,18,12.3,75,42.66,60-2.17,9-11.57,20,7.24v-18.08l13.5-23.87,17.5-9.4h4.5v-21L818,1250l-6-21.7,9.5-30.37,14.5,18.8,4.5-13.74,24-10.85,15,8.68,5,.72,7.5-9.4,21-10.85L927,1161h27.33l3-8.19,55.67,2.41s-5-8.68,4.33-5.79,63.67,7.72,63.67,7.72V1135s42.33-14,108.33,87.26c0,0,121.67-78.94,149.42-73.52s71.25,23.5,71.25,23.5-6.5-7.59-3.5-10.84,44.25,17,49.75,13.38,37.75,8,37.75,17-8,17.36-8,17.36l16.25,19.88,32,4.34,31.75,22.78s-4.5-1.44,4.5-1.8,16.5,6.14,16.5,6.14l26,20.61s-3,9.77,4.5,20.62l24.75,2s10.87,8.14,10.87,18.63,15.13,10.66,15.13,10.66,17.87,14.29,24.25,13.74,14.5,4.52,14.5,4.52l16,9s9.88-.18,11.25-5.6S1737,1386,1737,1386s37.83,14.22,40,33.75-1.17,15.91-1.17,15.91l3.84,7.47s3,41.46-22.17,32.54-34.5,7.72-34.5,7.72l-2.83,8.92-.34,5.06-5.83,1.35s-7.5-9.49-10.12-9.4-15.38-.72-15.38-.72-9.81,20.52-13.44,19-14.68-5.51-14.68-5.51l-5,10.58-6.82-.46-2.18-1.71-6.94,28.83,5.87,12.21,1.94,16.27-7.5,11.84,7.75,6.87,20.06,5.7L1920,1822V1072.81H0Z" transform="translate(0.5 -317.4)"/><path class="cls-12" d="M0,706.5H9.5l13.5-9L50,726l-3,9H65l13.5,6.5S91,799.5,142,826l72.5-79.5h16L239,735s13.92,20,38,15.5S293,739,293,739l20.47,6,16-8.55,28,2.5,34,16,15-12.5,8.5.5,7,7.5s70,32,82.5,18.5,30,9.5,30,9.5l-9,47.5-60,91L450,926l2.5,11.5L474,918l18.5,24-20,30.5,14-5,21-29,21-1,23,6,16.5-11,14.5-2.5,7.5,8,18-8.5L683,900l60,1.5,9,8,20-5V917l13.5,16.5L803,940h4.5v14.5l10.5,3-6,15,9.5,21,14.5-13,4.5,9.5,24,7.5,15-6,5-.5,7.5,6.5,21,7.5,14,14h27.33l3,5.67L1013,1023s-5,6,4.33,4,63.67-5.33,63.67-5.33V1037s42.33,9.67,108.33-60.33c0,0,121.67,54.58,149.42,50.83s71.25-16.25,71.25-16.25-6.5,5.25-3.5,7.5,44.25-11.75,49.75-9.25S1494,1004,1494,997.75s-8-12-8-12L1502.25,972l32-3L1566,953.25s-4.5,1,4.5,1.25a33.89,33.89,0,0,0,16.5-4.25L1613,936s-3-6.75,4.5-14.25l24.75-1.37s10.87-5.63,10.87-12.88,15.13-7.38,15.13-7.38,17.87-9.87,24.25-9.5,14.5-3.12,14.5-3.12l16-6.25s9.88.13,11.25,3.87S1737,863.5,1737,863.5s37.83-9.83,40-23.33-1.17-11-1.17-11l3.84-5.17s3-28.67-22.17-22.5-34.5-5.33-34.5-5.33l-2.83-6.17-.34-3.5-5.83-.94s-7.5,6.56-10.12,6.5-15.38.5-15.38.5-9.81-14.18-13.44-13.12-14.68,3.81-14.68,3.81l-5-7.31-6.82.31-2.18,1.19-6.94-19.94,5.87-8.44,1.94-11.25-7.5-8.19,7.75-4.74,20.06-3.94L1920,562v518H0Z" transform="translate(0.5 -317.4)"/><path class="cls-12" d="M0,1613H9.5l13.5,13,27-41.23-3-13H65l13.5-9.4S91,1478.52,142,1440.19l72.5,115h16l8.5,16.64s13.92-28.93,38-22.42S293,1566,293,1566l20.47-8.75,16,12.37,28-3.62,34-23.14,15,18.08,8.5-.72,7-10.85s70-46.29,82.5-26.76,30-13.74,30-13.74l-9-68.7-60-131.62-15.5-13,2.5-16.64,21.5,28.21,18.5-34.71-20-44.12,14,7.23,21,42,21,1.44,23-8.67,16.5,15.91,14.5,3.61,7.5-11.57,18,12.3,75,42.66,60-2.17,9-11.57,20,7.24v-18.08l13.5-23.87,17.5-9.4h4.5v-21L818,1250l-6-21.7,9.5-30.37,14.5,18.8,4.5-13.74,24-10.85,15,8.68,5,.72,7.5-9.4,21-10.85L927,1161h27.33l3-8.19,55.67,2.41s-5-8.68,4.33-5.79,63.67,7.72,63.67,7.72V1135s42.33-14,108.33,87.26c0,0,121.67-78.94,149.42-73.52s71.25,23.5,71.25,23.5-6.5-7.59-3.5-10.84,44.25,17,49.75,13.38,37.75,8,37.75,17-8,17.36-8,17.36l16.25,19.88,32,4.34,31.75,22.78s-4.5-1.44,4.5-1.8,16.5,6.14,16.5,6.14l26,20.61s-3,9.77,4.5,20.62l24.75,2s10.87,8.14,10.87,18.63,15.13,10.66,15.13,10.66,17.87,14.29,24.25,13.74,14.5,4.52,14.5,4.52l16,9s9.88-.18,11.25-5.6S1737,1386,1737,1386s37.83,14.22,40,33.75-1.17,15.91-1.17,15.91l3.84,7.47s3,41.46-22.17,32.54-34.5,7.72-34.5,7.72l-2.83,8.92-.34,5.06-5.83,1.35s-7.5-9.49-10.12-9.4-15.38-.72-15.38-.72-9.81,20.52-13.44,19-14.68-5.51-14.68-5.51l-5,10.58-6.82-.46-2.18-1.71-6.94,28.83,5.87,12.21,1.94,16.27-7.5,11.84,7.75,6.87,20.06,5.7L1920,1822V1072.81H0Z" transform="translate(0.5 -317.4)"/></svg>