<svg id="Layer_2" data-name="Layer 2" xmlns="http://www.w3.org/2000/svg" viewBox="0 0 115.05 53.43"><defs><style>.cls-1{fill:#273f3e;}.cls-2{fill:#253f3e;}.cls-3{fill:#305151;}.cls-4{fill:none;stroke:#273f3e;stroke-miterlimit:10;}</style></defs><title>shark</title><path class="cls-1" d="M36.65,34.77C34.28,33.16,14.89,34.93,0,20.49l33.22,5.62Z" transform="translate(0 0)"/><path class="cls-2" d="M88.62,11.45s-6.56,5.78-10.27,4.69l8.17,1.76S85.7,15.22,88.62,11.45Z" transform="translate(0 0)"/><path class="cls-1" d="M43,2.34S31,9.13,32.84,12.81c0,0,5.23,0,6.71.18S38.11,11.2,43,2.34Z" transform="translate(0 0)"/><path class="cls-3" d="M0,20.49c1.21,4.45,28.26-11.7,51.56-9.18,0,0,19.08-13,24.87-11.12,0,0-9.49,6.35-6.41,11.4,0,0,15.36,5.68,21.74,4.72,0,0,13.14-4.11,17.74-15.13,0,0-.93,12.17-5.26,16.16a15.47,15.47,0,0,0,10.81,8.24s-8.51,1.28-20.35-1.74c0,0-14.59,9.59-41.45,12.31,0,0,20.5,22,12.9,16.34-3.87-2.89-27.28-15.14-35.7-22.23C30.45,30.26,13.66,30.34,0,20.49Z" transform="translate(0 0)"/><path class="cls-4" d="M24.66,30.63s1.3-.9,1.58-4.85" transform="translate(0 0)"/><path class="cls-4" d="M26.74,30.89S28,30,28.32,26" transform="translate(0 0)"/><path class="cls-4" d="M28.49,31.46s1.3-.9,1.58-4.85" transform="translate(0 0)"/><path class="cls-1" d="M76.43.19s-12,6.54-12.73,11.18a14.24,14.24,0,0,1,6.32.22S66.27,8.29,76.43.19Z" transform="translate(0 0)"/><path class="cls-1" d="M94.7,23.84s1.36-1.43,1.24-2.25,15.33,4.49,19.11,4C115.05,25.58,101.83,26.56,94.7,23.84Z" transform="translate(0 0)"/><path class="cls-1" d="M104.24,17.34s-.17-1.56-2.49-1.79c0,0,6.1-2.84,7.75-14.37C109.5,1.18,109.52,10.87,104.24,17.34Z" transform="translate(0 0)"/></svg>