<?xml version="1.0" encoding="utf-8"?>
<!-- Generator: Adobe Illustrator 23.0.0, SVG Export Plug-In . SVG Version: 6.00 Build 0)  -->
<svg version="1.1" xmlns="http://www.w3.org/2000/svg" xmlns:xlink="http://www.w3.org/1999/xlink" x="0px" y="0px"
	 viewBox="0 0 477.25 125.9" style="enable-background:new 0 0 477.25 125.9;" xml:space="preserve">
<style type="text/css">
	.st0{fill:#424F50;}
	.st1{fill:#527C77;}
	.st2{fill:#5E8E87;}
	.st3{fill:#6BA5A0;}
	.st4{fill:#FFF9AF;}
	.st5{fill:#72AAA1;}
	.st6{fill:#9AD8CA;}
	.st7{fill:#D4D8D6;}
	.st8{fill:#EA8B73;}
	.st9{fill:#E5EFEC;}
	.st10{fill:#91C9C7;}
	.st11{fill:#3C706F;}
	.st12{fill:none;}
	.st13{display:none;}
	.st14{display:inline;fill:#EA8B73;}
	.st15{font-family:'LeHavre-Bol';}
	.st16{font-size:119px;}
	.st17{letter-spacing:-4;}
	.st18{font-family:'LeHavre-BolIta';}
	.st19{font-family:'LeHavre-Reg';}
	.st20{font-family:'LeHavre-Bla';}
	.st21{letter-spacing:-1;}
	.st22{display:inline;fill:#CE7A6A;}
	.st23{font-family:'LeHavre-Thi';}
	.st24{letter-spacing:-2;}
	.st25{font-family:'LeHavre-ThiIta';}
	.st26{letter-spacing:7;}
	.st27{letter-spacing:8;}
	.st28{display:none;fill:#6BA5A0;}
</style>
<g id="Layer_2">
	<rect class="st0" width="477.25" height="125.9"/>
</g>
<g id="Layer_3">
	<polygon class="st1" points="106.46,70.84 0,67.56 0,103.45 6.55,103.45 	"/>
	<polyline class="st2" points="439.73,87.15 477.25,91.22 477.25,70.84 439.73,87.15 477.25,70.84 	"/>
	<polyline class="st3" points="402.2,103.45 477.25,100.37 477.25,91.22 439.73,87.15 402.2,103.45 	"/>
	<rect y="91.22" class="st3" width="477.25" height="34.68"/>
</g>
<g id="Layer_1">
	<ellipse class="st4" cx="238.63" cy="34.43" rx="52.66" ry="24"/>
	<g>
		<polygon class="st3" points="0,103.45 88.63,70.84 477.25,70.84 401.12,103.45 		"/>
		<polygon class="st1" points="0,103.45 207.95,70.84 88.63,70.84 		"/>
		<polygon class="st2" points="371.58,70.84 439.19,87.15 477.25,70.84 		"/>
		<polygon class="st5" points="249.99,103.45 324.99,79 401.12,103.45 		"/>
		<polygon class="st6" points="39.77,103.45 260.79,70.84 296.58,70.84 207.95,103.45 		"/>
	</g>
	<g>
		<polygon class="st0" points="110.91,77.07 121.79,88.8 342.47,88.8 355.35,77.07 		"/>
		<path class="st7" d="M106.46,55.41c0,0,2.24,0.79,2.82,6.04c0.59,5.25,1.62,15.61,1.62,15.61h244.44l23.72-21.65H106.46z"/>
		<polygon class="st8" points="109.29,61.45 372.45,61.45 379.07,55.41 106.46,55.41 		"/>
		<path class="st9" d="M115.65,55.41c0,0,4.99-16.55,16.81-26.26h79.32c0,0,1.83,7.62,5.25,7.35l47.27,0.26
			c0,0,12.87-6.57,12.34-10.77h28.36l12.08,10.77h11.82l17.07,18.65H115.65z"/>
	</g>
	<g>
		<circle class="st10" cx="118.94" cy="67.56" r="3.28"/>
		<circle class="st10" cx="146.29" cy="67.56" r="3.28"/>
		<circle class="st10" cx="175.86" cy="67.56" r="3.28"/>
		<circle class="st10" cx="203.21" cy="67.56" r="3.28"/>
		<circle class="st10" cx="232.42" cy="67.56" r="3.28"/>
		<circle class="st10" cx="259.77" cy="67.56" r="3.28"/>
		<circle class="st10" cx="289.34" cy="67.56" r="3.28"/>
		<circle class="st10" cx="316.69" cy="67.56" r="3.28"/>
		<circle class="st10" cx="349.26" cy="67.56" r="3.28"/>
	</g>
	<path class="st11" d="M100.05,74.9c0,0-5.22,1.66-10,1.46C90.06,76.36,91.49,71.67,100.05,74.9z"/>
	<rect y="15.47" class="st12" width="477.25" height="87.98"/>
	<text transform="matrix(1 0 0 1 2.269574e-04 101.1488)" class="st13"><tspan x="0" y="0" class="st14 st15 st16 st17">L</tspan><tspan x="39.86" y="0" class="st14 st18 st16">e</tspan><tspan x="89.13" y="0" class="st14 st19 st16"> </tspan><tspan x="111.38" y="0" class="st14 st20 st16 st21">H</tspan><tspan x="183.02" y="0" class="st22 st23 st16 st24">a</tspan><tspan x="226.69" y="0" class="st22 st25 st16 st26">v</tspan><tspan x="270.96" y="0" class="st22 st25 st16 st27">r</tspan><tspan x="303.92" y="0" class="st22 st23 st16">e</tspan></text>
	<path class="st0" d="M97.02,74.9c0,0,1.32-1.62,0.71-3.14c0,0,3.04,2.94,2.33,3.14C100.05,74.9,98.23,75.61,97.02,74.9z"/>
	<path class="st8" d="M211.78,29.15c0,0,0.73,7.3,4.27,8.48h48.63c0,0,13.3-7.46,11.96-11.64c0,0-0.09,4.43-12.34,10.77l-47.27-0.26
		C217.03,36.5,213.86,36.8,211.78,29.15z"/>
	<polygon class="st8" points="317.09,36.77 317.52,37.26 329.35,37.26 328.9,36.77 	"/>
	<path class="st28" d="M-2.94,105.66c0,0,17.51-3.31,24.57-11.71c0,0,2.73,4.65,5.01,3.66c0,0,28.13,5.38,39.85,2.2
		c0,0,34.44,5.07,36.93,0c0,0,5.07,4,11.07,3.25c0,0,20.29,0.69,24-3.25c0,0,29.39,5.86,36.29,5.86c3.15,0,25.75-3.92,26.31-15.47
		c0,0,0.27,12.1,7.7,10.59c0,0,40.86-1.13,42.58-6.05c0,0,2.57,9.83,6.29,9.08c3.71-0.76,14-0.79,14.57-5.88
		c0.57-5.09,10.57,4.03,10.57,5.88c0,1.85,20.86-0.79,19.43-5.88c0,0,11.72,7.01,18,5.5c0,0,19.53,0.63,20.1-2.96
		c0,0,7.54,6.54,10.28,5.19c0,0,14.7-6.84,15.83-9.98c1.13-3.14,11.64-1.94,11.64-1.94s5.49-1.79,8.17-7.03c0,0,5.91,0.02,8.47-2.83
		c2.57-2.85,6.37-3.9,6.37-3.9l0.6,2.99l3.94,24.02L-2.94,105.66z"/>
</g>
</svg>
